<?xml version="1.0" encoding="UTF-8"?>
<svg xmlns="http://www.w3.org/2000/svg" xmlns:xlink="http://www.w3.org/1999/xlink" width="100pt" height="100pt" viewBox="0 0 100 100" version="1.1">
<g id="surface3494800">
<path style=" stroke:none;fill-rule:nonzero;fill:rgb(20.784314%,21.176471%,22.745098%);fill-opacity:1;" d="M 59 12 C 48.519531 12 40 20.519531 40 31 L 40 39 L 30 39 C 29.449219 39 29 39.449219 29 40 L 29 54 C 29 54.550781 29.449219 55 30 55 L 40 55 L 40 87 C 40 87.550781 40.449219 88 41 88 L 55 88 C 55.550781 88 56 87.550781 56 87 L 56 55 L 68 55 C 68.496094 55 68.921875 54.632812 68.988281 54.140625 L 70.988281 40.140625 C 71.03125 39.855469 70.945312 39.5625 70.753906 39.34375 C 70.566406 39.125 70.289062 39 70 39 L 56 39 L 56 33 C 56 29.121094 59.121094 26 63 26 L 70 26 C 70.550781 26 71 25.550781 71 25 L 71 14 C 71 13.523438 70.664062 13.113281 70.195312 13.019531 C 70.195312 13.019531 65.109375 12 59 12 Z M 59 14 C 64.148438 14 67.972656 14.667969 69 14.859375 L 69 24 L 63 24 C 58.042969 24 54 28.042969 54 33 L 54 40 C 54 40.550781 54.449219 41 55 41 L 68.847656 41 L 67.132812 53 L 55 53 C 54.449219 53 54 53.449219 54 54 L 54 86 L 42 86 L 42 54 C 42 53.449219 41.550781 53 41 53 L 31 53 L 31 41 L 41 41 C 41.550781 41 42 40.550781 42 40 L 42 31 C 42 21.597656 49.597656 14 59 14 Z M 59 17 C 51.285156 17 45 23.285156 45 31 L 45 31.5 C 44.996094 31.679688 45.09375 31.847656 45.246094 31.9375 C 45.402344 32.03125 45.597656 32.03125 45.753906 31.9375 C 45.90625 31.847656 46.003906 31.679688 46 31.5 L 46 31 C 46 23.828125 51.828125 18 59 18 C 61.417969 18 63.683594 18.179688 65.445312 18.382812 C 65.621094 18.402344 65.796875 18.324219 65.902344 18.179688 C 66.007812 18.039062 66.03125 17.847656 65.957031 17.683594 C 65.886719 17.519531 65.734375 17.40625 65.558594 17.386719 C 63.765625 17.183594 61.46875 17 59 17 Z M 45.492188 33.992188 C 45.359375 33.996094 45.234375 34.050781 45.140625 34.144531 C 45.046875 34.238281 44.996094 34.367188 45 34.5 L 45 37.5 C 44.996094 37.679688 45.09375 37.847656 45.246094 37.9375 C 45.402344 38.03125 45.597656 38.03125 45.753906 37.9375 C 45.90625 37.847656 46.003906 37.679688 46 37.5 L 46 34.5 C 46.003906 34.363281 45.949219 34.234375 45.855469 34.136719 C 45.757812 34.042969 45.628906 33.988281 45.492188 33.992188 Z M 45.492188 38.992188 C 45.359375 38.996094 45.234375 39.050781 45.140625 39.144531 C 45.046875 39.238281 44.996094 39.367188 45 39.5 L 45 40.5 C 44.996094 40.679688 45.09375 40.847656 45.246094 40.9375 C 45.402344 41.03125 45.597656 41.03125 45.753906 40.9375 C 45.90625 40.847656 46.003906 40.679688 46 40.5 L 46 39.5 C 46.003906 39.363281 45.949219 39.234375 45.855469 39.136719 C 45.757812 39.042969 45.628906 38.988281 45.492188 38.992188 Z M 45.492188 52.992188 C 45.359375 52.996094 45.234375 53.050781 45.140625 53.144531 C 45.046875 53.238281 44.996094 53.367188 45 53.5 L 45 82.5 C 44.996094 82.679688 45.09375 82.847656 45.246094 82.9375 C 45.402344 83.03125 45.597656 83.03125 45.753906 82.9375 C 45.90625 82.847656 46.003906 82.679688 46 82.5 L 46 53.5 C 46.003906 53.363281 45.949219 53.234375 45.855469 53.136719 C 45.757812 53.042969 45.628906 52.988281 45.492188 52.992188 Z M 45.492188 52.992188 "/>
</g>
</svg>
