<svg id="Layer_1" data-name="Layer 1" xmlns="http://www.w3.org/2000/svg" xmlns:xlink="http://www.w3.org/1999/xlink" viewBox="0 0 1139.41 1051.65"><defs><style>.cls-1{fill:url(#linear-gradient);}.cls-2{fill:url(#linear-gradient-2);}.cls-3{fill:url(#linear-gradient-3);}.cls-4{fill:#fff;}.cls-5{fill:url(#linear-gradient-4);}.cls-6{fill:url(#linear-gradient-5);}.cls-7{fill:url(#linear-gradient-6);}.cls-8{fill:url(#linear-gradient-7);}.cls-9{fill:url(#linear-gradient-8);}.cls-10{fill:url(#linear-gradient-9);}.cls-11{fill:url(#linear-gradient-10);}.cls-12{fill:url(#linear-gradient-11);}.cls-13{fill:url(#linear-gradient-12);}.cls-14{fill:url(#linear-gradient-13);}.cls-15{fill:url(#linear-gradient-14);}.cls-16{fill:url(#linear-gradient-15);}.cls-17{fill:url(#linear-gradient-16);}.cls-18{fill:url(#linear-gradient-17);}.cls-19{fill:url(#linear-gradient-18);}.cls-20{fill:url(#linear-gradient-19);}.cls-21{fill:url(#linear-gradient-20);}.cls-22{fill:url(#linear-gradient-21);}.cls-23{fill:url(#linear-gradient-22);}.cls-24{fill:url(#linear-gradient-23);}.cls-25{fill:url(#linear-gradient-24);}.cls-26{fill:url(#linear-gradient-25);}.cls-27{fill:url(#linear-gradient-26);}.cls-28{fill:url(#linear-gradient-27);}.cls-29{fill:url(#linear-gradient-28);}.cls-30{fill:url(#linear-gradient-29);}.cls-31{fill:url(#linear-gradient-30);}.cls-32{fill:url(#linear-gradient-31);}.cls-33{fill:url(#linear-gradient-32);}.cls-34{fill:url(#linear-gradient-33);}.cls-35{fill:url(#linear-gradient-34);}.cls-36{fill:url(#linear-gradient-35);}.cls-37{fill:url(#linear-gradient-36);}.cls-38{fill:url(#linear-gradient-37);}.cls-39{fill:url(#linear-gradient-38);}.cls-40{fill:url(#linear-gradient-39);}.cls-41{fill:url(#linear-gradient-40);}.cls-42{fill:url(#linear-gradient-41);}.cls-43{fill:none;}.cls-44{fill:url(#linear-gradient-42);}.cls-45{fill:url(#linear-gradient-43);}.cls-46{fill:url(#linear-gradient-44);}.cls-47{fill:url(#linear-gradient-45);}.cls-48{fill:url(#linear-gradient-46);}.cls-49{fill:url(#linear-gradient-47);}.cls-50{fill:url(#linear-gradient-48);}.cls-51{fill:url(#linear-gradient-49);}.cls-52{fill:url(#linear-gradient-50);}.cls-53{fill:url(#linear-gradient-51);}.cls-54{fill:url(#linear-gradient-52);}.cls-55{fill:url(#linear-gradient-53);}.cls-56{fill:url(#linear-gradient-54);}.cls-57{fill:url(#linear-gradient-55);}.cls-58{fill:url(#linear-gradient-56);}.cls-59{fill:url(#linear-gradient-57);}.cls-60{fill:url(#linear-gradient-58);}.cls-61{fill:url(#linear-gradient-59);}.cls-62{fill:url(#linear-gradient-60);}.cls-63{fill:url(#linear-gradient-61);}.cls-64{fill:url(#linear-gradient-62);}.cls-65{fill:url(#linear-gradient-63);}.cls-66{fill:url(#linear-gradient-64);}.cls-67{fill:url(#linear-gradient-65);}.cls-68{fill:url(#linear-gradient-66);}.cls-69{fill:url(#linear-gradient-67);}.cls-70{fill:url(#linear-gradient-68);}.cls-71{fill:url(#linear-gradient-69);}.cls-72{fill:url(#linear-gradient-70);}.cls-73{fill:url(#linear-gradient-71);}.cls-74{fill:url(#linear-gradient-72);}.cls-75{fill:url(#linear-gradient-73);}.cls-76{fill:url(#linear-gradient-74);}.cls-77{fill:url(#linear-gradient-75);}.cls-78{fill:url(#linear-gradient-76);}.cls-79{fill:url(#linear-gradient-77);}.cls-80{fill:url(#linear-gradient-78);}.cls-81{fill:url(#linear-gradient-79);}.cls-82{fill:url(#linear-gradient-80);}.cls-83{fill:url(#linear-gradient-81);}.cls-84{fill:url(#linear-gradient-82);}.cls-85{fill:url(#linear-gradient-83);}.cls-86{fill:url(#linear-gradient-84);}</style><linearGradient id="linear-gradient" x1="584.28" y1="1017.23" x2="584.28" y2="15.55" gradientUnits="userSpaceOnUse"><stop offset="0" stop-color="#e3e5f3"/><stop offset="0.56" stop-color="#f1f5fb"/><stop offset="1" stop-color="#f7fcfe"/></linearGradient><linearGradient id="linear-gradient-2" x1="517.96" y1="228.63" x2="840.38" y2="228.63" gradientUnits="userSpaceOnUse"><stop offset="0" stop-color="#b9aaff"/><stop offset="1" stop-color="#c0bfff"/></linearGradient><linearGradient id="linear-gradient-3" x1="517.96" y1="398.95" x2="840.38" y2="398.95" gradientUnits="userSpaceOnUse"><stop offset="0.01" stop-color="#9a7fff"/><stop offset="1" stop-color="#fff"/></linearGradient><linearGradient id="linear-gradient-4" x1="736.82" y1="295.74" x2="770.81" y2="329.74" xlink:href="#linear-gradient-3"/><linearGradient id="linear-gradient-5" x1="786.74" y1="311.5" x2="822.86" y2="311.5" gradientUnits="userSpaceOnUse"><stop offset="0" stop-color="#ffbfd4"/><stop offset="0.22" stop-color="#ff9acc"/><stop offset="0.7" stop-color="#ff3db7"/><stop offset="1" stop-color="#f0a"/></linearGradient><linearGradient id="linear-gradient-6" x1="736.82" y1="379.85" x2="770.81" y2="413.85" xlink:href="#linear-gradient-3"/><linearGradient id="linear-gradient-7" x1="786.74" y1="395.61" x2="822.86" y2="395.61" xlink:href="#linear-gradient-5"/><linearGradient id="linear-gradient-8" x1="736.82" y1="463.96" x2="770.81" y2="497.96" xlink:href="#linear-gradient-3"/><linearGradient id="linear-gradient-9" x1="786.74" y1="479.72" x2="822.86" y2="479.72" xlink:href="#linear-gradient-5"/><linearGradient id="linear-gradient-10" x1="584.84" y1="332.4" x2="572.76" y2="311.47" gradientUnits="userSpaceOnUse"><stop offset="0.01" stop-color="#0022e9"/><stop offset="1" stop-color="#b37fff"/></linearGradient><linearGradient id="linear-gradient-11" x1="585.18" y1="312.35" x2="575" y2="294.72" xlink:href="#linear-gradient-10"/><linearGradient id="linear-gradient-12" x1="584.84" y1="417.94" x2="572.76" y2="397.01" xlink:href="#linear-gradient-10"/><linearGradient id="linear-gradient-13" x1="585.18" y1="397.89" x2="575" y2="380.26" xlink:href="#linear-gradient-10"/><linearGradient id="linear-gradient-14" x1="584.84" y1="502.05" x2="572.76" y2="481.13" xlink:href="#linear-gradient-10"/><linearGradient id="linear-gradient-15" x1="585.18" y1="482" x2="575" y2="464.37" xlink:href="#linear-gradient-10"/><linearGradient id="linear-gradient-16" x1="628" y1="302.93" x2="699.5" y2="302.93" xlink:href="#linear-gradient-10"/><linearGradient id="linear-gradient-17" x1="628" y1="322.55" x2="716.32" y2="322.55" xlink:href="#linear-gradient-10"/><linearGradient id="linear-gradient-18" x1="628" y1="385.64" x2="699.5" y2="385.64" xlink:href="#linear-gradient-10"/><linearGradient id="linear-gradient-19" x1="628" y1="405.26" x2="716.32" y2="405.26" xlink:href="#linear-gradient-10"/><linearGradient id="linear-gradient-20" x1="628" y1="471.15" x2="699.5" y2="471.15" xlink:href="#linear-gradient-10"/><linearGradient id="linear-gradient-21" x1="628" y1="490.77" x2="716.32" y2="490.77" xlink:href="#linear-gradient-10"/><linearGradient id="linear-gradient-22" x1="114.93" y1="384.93" x2="260.28" y2="384.93" gradientUnits="userSpaceOnUse"><stop offset="0.02" stop-color="#6f00ff"/><stop offset="0.61" stop-color="#945bff"/><stop offset="1" stop-color="#ab94ff"/></linearGradient><linearGradient id="linear-gradient-23" x1="264.23" y1="281.22" x2="439.46" y2="281.22" gradientUnits="userSpaceOnUse"><stop offset="0" stop-color="#00e6e9"/><stop offset="0.43" stop-color="#02e6e9"/><stop offset="0.59" stop-color="#09e8ea"/><stop offset="0.71" stop-color="#15ebeb"/><stop offset="0.8" stop-color="#26efed"/><stop offset="0.89" stop-color="#3cf4ef"/><stop offset="0.96" stop-color="#57fbf2"/><stop offset="1" stop-color="#6afff4"/></linearGradient><linearGradient id="linear-gradient-24" x1="702.63" y1="637.2" x2="799.7" y2="637.2" gradientUnits="userSpaceOnUse"><stop offset="0" stop-color="#1517ff"/><stop offset="0.14" stop-color="#2b30ff"/><stop offset="0.3" stop-color="#3e45ff"/><stop offset="0.48" stop-color="#4b54ff"/><stop offset="0.69" stop-color="#535dff"/><stop offset="1" stop-color="#5560ff"/></linearGradient><linearGradient id="linear-gradient-25" x1="758.15" y1="621.24" x2="800.33" y2="621.24" gradientUnits="userSpaceOnUse"><stop offset="0" stop-color="#1517ff"/><stop offset="1" stop-color="#5560ff"/></linearGradient><linearGradient id="linear-gradient-26" x1="651.83" y1="604.61" x2="800.33" y2="604.61" xlink:href="#linear-gradient-5"/><linearGradient id="linear-gradient-27" x1="667.25" y1="621.2" x2="745.08" y2="621.2" xlink:href="#linear-gradient-25"/><linearGradient id="linear-gradient-28" x1="541.87" y1="92.55" x2="466.48" y2="167.95" gradientUnits="userSpaceOnUse"><stop offset="0" stop-color="#ab94ff"/><stop offset="0.39" stop-color="#945bff"/><stop offset="0.98" stop-color="#6f00ff"/></linearGradient><linearGradient id="linear-gradient-29" x1="899.9" y1="270.38" x2="1017.08" y2="270.38" xlink:href="#linear-gradient-23"/><linearGradient id="linear-gradient-30" x1="230.49" y1="236.28" x2="280.91" y2="236.28" xlink:href="#linear-gradient-10"/><linearGradient id="linear-gradient-31" x1="246.2" y1="244.39" x2="281.43" y2="244.39" xlink:href="#linear-gradient-10"/><linearGradient id="linear-gradient-32" x1="396.11" y1="693.58" x2="567.58" y2="576.88" gradientUnits="userSpaceOnUse"><stop offset="0" stop-color="#c0bfff"/><stop offset="0.65" stop-color="#e9eaff"/></linearGradient><linearGradient id="linear-gradient-33" x1="486.79" y1="688.99" x2="438.3" y2="743.55" xlink:href="#linear-gradient-2"/><linearGradient id="linear-gradient-34" x1="381.28" y1="764.83" x2="469.59" y2="764.83" xlink:href="#linear-gradient-28"/><linearGradient id="linear-gradient-35" x1="331.45" y1="569.57" x2="412.53" y2="569.57" gradientUnits="userSpaceOnUse"><stop offset="0" stop-color="#5560ff"/><stop offset="1" stop-color="#1517ff"/></linearGradient><linearGradient id="linear-gradient-36" x1="408.61" y1="555.26" x2="473.1" y2="555.26" xlink:href="#linear-gradient-3"/><linearGradient id="linear-gradient-37" x1="386" y1="623.31" x2="486.39" y2="623.31" xlink:href="#linear-gradient-35"/><linearGradient id="linear-gradient-38" x1="514.92" y1="556.66" x2="514.92" y2="489.66" xlink:href="#linear-gradient-3"/><linearGradient id="linear-gradient-39" x1="467.4" y1="597.31" x2="531.98" y2="597.31" xlink:href="#linear-gradient-35"/><linearGradient id="linear-gradient-40" x1="467.28" y1="533.5" x2="410.93" y2="500.96" xlink:href="#linear-gradient-3"/><linearGradient id="linear-gradient-41" x1="415.44" y1="500.36" x2="474.72" y2="500.36" gradientUnits="userSpaceOnUse"><stop offset="0" stop-color="#18003f"/><stop offset="1" stop-color="#0800bf"/></linearGradient><linearGradient id="linear-gradient-42" x1="434.32" y1="866.74" x2="479.14" y2="866.74" xlink:href="#linear-gradient-10"/><linearGradient id="linear-gradient-43" x1="657.54" y1="856.52" x2="255.94" y2="454.93" gradientUnits="userSpaceOnUse"><stop offset="0" stop-color="#f0a"/><stop offset="0.07" stop-color="#ff12ae"/><stop offset="0.31" stop-color="#ff4fbb"/><stop offset="0.54" stop-color="#ff7fc6"/><stop offset="0.73" stop-color="#ffa2ce"/><stop offset="0.89" stop-color="#ffb7d2"/><stop offset="1" stop-color="#ffbfd4"/></linearGradient><linearGradient id="linear-gradient-44" x1="460.21" y1="422.44" x2="453.26" y2="415.49" gradientUnits="userSpaceOnUse"><stop offset="0" stop-color="#3f46ff"/><stop offset="1" stop-color="#5560ff"/></linearGradient><linearGradient id="linear-gradient-45" x1="424.57" y1="441.49" x2="419.17" y2="436.09" xlink:href="#linear-gradient-44"/><linearGradient id="linear-gradient-46" x1="469.41" y1="451.47" x2="444.07" y2="426.13" gradientUnits="userSpaceOnUse"><stop offset="0" stop-color="#9a7fff"/><stop offset="1" stop-color="#c0bfff"/></linearGradient><linearGradient id="linear-gradient-47" x1="456.28" y1="748.71" x2="456.28" y2="816" gradientUnits="userSpaceOnUse"><stop offset="0" stop-color="#e5edff"/><stop offset="0.15" stop-color="#e7efff"/><stop offset="1" stop-color="#e9f1ff"/></linearGradient><linearGradient id="linear-gradient-48" x1="437.68" y1="782.52" x2="473.8" y2="782.52" xlink:href="#linear-gradient-5"/><linearGradient id="linear-gradient-49" x1="513.05" y1="780.95" x2="549.5" y2="780.95" xlink:href="#linear-gradient-47"/><linearGradient id="linear-gradient-50" x1="513.05" y1="775" x2="549.5" y2="775" gradientUnits="userSpaceOnUse"><stop offset="0" stop-color="#f0a"/><stop offset="0.53" stop-color="#ff63c0"/><stop offset="1" stop-color="#ffbfd4"/></linearGradient><linearGradient id="linear-gradient-51" x1="382.96" y1="803.09" x2="368.95" y2="778.82" gradientUnits="userSpaceOnUse"><stop offset="0" stop-color="#ffbfd4"/><stop offset="0.08" stop-color="#ff98cb"/><stop offset="0.18" stop-color="#ff70c3"/><stop offset="0.28" stop-color="#ff4dbb"/><stop offset="0.39" stop-color="#ff31b5"/><stop offset="0.51" stop-color="#ff1bb0"/><stop offset="0.64" stop-color="#ff0cad"/><stop offset="0.78" stop-color="#ff03ab"/><stop offset="1" stop-color="#f0a"/></linearGradient><linearGradient id="linear-gradient-52" x1="377.26" y1="774.04" x2="373.25" y2="767.09" xlink:href="#linear-gradient-51"/><linearGradient id="linear-gradient-53" x1="377.32" y1="769.94" x2="372.35" y2="761.33" xlink:href="#linear-gradient-51"/><linearGradient id="linear-gradient-54" x1="378.84" y1="786.6" x2="372.51" y2="775.64" xlink:href="#linear-gradient-51"/><linearGradient id="linear-gradient-55" x1="377.26" y1="778.1" x2="373.25" y2="771.15" xlink:href="#linear-gradient-51"/><linearGradient id="linear-gradient-56" x1="639.92" y1="731.19" x2="700.1" y2="731.19" xlink:href="#linear-gradient-3"/><linearGradient id="linear-gradient-57" x1="628.23" y1="722.59" x2="702.07" y2="722.59" gradientUnits="userSpaceOnUse"><stop offset="0.02" stop-color="#4f00aa"/><stop offset="0.13" stop-color="#4d00a2"/><stop offset="1" stop-color="#3d006a"/></linearGradient><linearGradient id="linear-gradient-58" x1="1026.17" y1="651.58" x2="822.25" y2="533.84" xlink:href="#linear-gradient-10"/><linearGradient id="linear-gradient-59" x1="841.5" y1="995.62" x2="758.9" y2="852.53" xlink:href="#linear-gradient-35"/><linearGradient id="linear-gradient-60" x1="642.72" y1="888.36" x2="898.86" y2="888.36" xlink:href="#linear-gradient-35"/><linearGradient id="linear-gradient-61" x1="653.94" y1="755.02" x2="791.32" y2="755.02" xlink:href="#linear-gradient-3"/><linearGradient id="linear-gradient-62" x1="620.78" y1="768.76" x2="685.57" y2="880.98" xlink:href="#linear-gradient-28"/><linearGradient id="linear-gradient-63" x1="569.13" y1="845.11" x2="982.61" y2="718.23" gradientUnits="userSpaceOnUse"><stop offset="0.01" stop-color="#9a7fff"/><stop offset="0.04" stop-color="#9f86ff"/><stop offset="0.25" stop-color="#c1b1ff"/><stop offset="0.46" stop-color="#dcd3ff"/><stop offset="0.66" stop-color="#efebff"/><stop offset="0.85" stop-color="#fbfaff"/><stop offset="1" stop-color="#fff"/></linearGradient><linearGradient id="linear-gradient-64" x1="907.02" y1="962.68" x2="854.12" y2="871.04" xlink:href="#linear-gradient-10"/><linearGradient id="linear-gradient-65" x1="796.22" y1="909.37" x2="903.24" y2="909.37" xlink:href="#linear-gradient-28"/><linearGradient id="linear-gradient-66" x1="1035.36" y1="689.24" x2="947.81" y2="840.87" xlink:href="#linear-gradient-23"/><linearGradient id="linear-gradient-67" x1="1017.25" y1="831.3" x2="903.38" y2="717.43" xlink:href="#linear-gradient-23"/><linearGradient id="linear-gradient-68" x1="974.01" y1="774.41" x2="1046.85" y2="774.41" xlink:href="#linear-gradient-23"/><linearGradient id="linear-gradient-69" x1="938.16" y1="843.68" x2="1029.98" y2="935.51" xlink:href="#linear-gradient-43"/><linearGradient id="linear-gradient-70" x1="244.25" y1="558.22" x2="298.15" y2="558.22" xlink:href="#linear-gradient-3"/><linearGradient id="linear-gradient-71" x1="228.81" y1="541.53" x2="302.08" y2="541.53" xlink:href="#linear-gradient-41"/><linearGradient id="linear-gradient-72" x1="177.31" y1="546.76" x2="241.8" y2="546.76" xlink:href="#linear-gradient-41"/><linearGradient id="linear-gradient-73" x1="229.18" y1="820.91" x2="294.63" y2="820.91" xlink:href="#linear-gradient-3"/><linearGradient id="linear-gradient-74" x1="207.69" y1="866.84" x2="266.78" y2="866.84" xlink:href="#linear-gradient-3"/><linearGradient id="linear-gradient-75" x1="255.83" y1="751.83" x2="282.31" y2="751.83" xlink:href="#linear-gradient-5"/><linearGradient id="linear-gradient-76" x1="213.9" y1="741.13" x2="278.95" y2="741.13" xlink:href="#linear-gradient-5"/><linearGradient id="linear-gradient-77" x1="238.99" y1="946.37" x2="299.27" y2="946.37" xlink:href="#linear-gradient-5"/><linearGradient id="linear-gradient-78" x1="263.8" y1="936.55" x2="298.18" y2="936.55" xlink:href="#linear-gradient-5"/><linearGradient id="linear-gradient-79" x1="203.95" y1="946.37" x2="260.02" y2="946.37" xlink:href="#linear-gradient-5"/><linearGradient id="linear-gradient-80" x1="224.55" y1="936.55" x2="258.93" y2="936.55" xlink:href="#linear-gradient-5"/><linearGradient id="linear-gradient-81" x1="209.49" y1="664.23" x2="300.67" y2="664.23" xlink:href="#linear-gradient-10"/><linearGradient id="linear-gradient-82" x1="197.29" y1="688.43" x2="255.81" y2="688.43" xlink:href="#linear-gradient-3"/><linearGradient id="linear-gradient-83" x1="196.26" y1="636.29" x2="269.56" y2="636.29" xlink:href="#linear-gradient-23"/><linearGradient id="linear-gradient-84" x1="237.59" y1="710.16" x2="261.42" y2="710.16" xlink:href="#linear-gradient-5"/></defs><title>Phone Contacts</title><path class="cls-1" d="M512.35,15.55c-94,0-196.26,136-171,203.27S547.4,423.49,241.8,530,59.56,768.34,184.32,789.36s214.48,187.85,305.6,221.49,98.13-74.29,169.62-127.56,504.66-151.4,454.2-207.47-312.61,5.6-301.4-36.45S1155.79,359,1101.12,300.12s-454.19,70.1-482.23,9.82S689,217.42,668,145.92,611.88,15.55,512.35,15.55Z"/><path class="cls-2" d="M545.93,199.19H812.41a28,28,0,0,1,28,28v30.9a0,0,0,0,1,0,0H518a0,0,0,0,1,0,0v-30.9A28,28,0,0,1,545.93,199.19Z"/><path class="cls-3" d="M518,258.07H840.38a0,0,0,0,1,0,0V519.16a20.68,20.68,0,0,1-20.68,20.68H538.63A20.68,20.68,0,0,1,518,519.16V258.07A0,0,0,0,1,518,258.07Z"/><path class="cls-4" d="M819.35,227.93a9.11,9.11,0,1,1-9.11-9.11A9.11,9.11,0,0,1,819.35,227.93Z"/><path class="cls-4" d="M788.51,227.93a9.11,9.11,0,1,1-9.11-9.11A9.11,9.11,0,0,1,788.51,227.93Z"/><path class="cls-4" d="M760.48,227.93a9.12,9.12,0,1,1-9.12-9.11A9.11,9.11,0,0,1,760.48,227.93Z"/><circle class="cls-4" cx="580.34" cy="313.44" r="30.14"/><rect class="cls-5" x="733.84" y="298.72" width="39.95" height="28.04"/><polygon class="cls-4" points="733.84 298.72 753.82 312.74 773.79 298.72 733.84 298.72"/><path class="cls-6" d="M810.54,306.47l-1.19-1.32a5.48,5.48,0,0,1,.39-7.74l2-1.81a5.43,5.43,0,0,1,3.67-1.42,5.52,5.52,0,0,1,4.07,1.8l1.19,1.32a4.75,4.75,0,0,1,.43.55l.06.07c1.12,1,2.08,3.3,1.53,6.16a30.72,30.72,0,0,1-27.31,24.7,7.76,7.76,0,0,1-4.71-1,5.88,5.88,0,0,1-1.34-1.08l-1.19-1.32a5.48,5.48,0,0,1,.39-7.73l2-1.82a5.46,5.46,0,0,1,7.73.39l1.2,1.31a5.59,5.59,0,0,1,1.12,1.93l.11.32.31-.13a23,23,0,0,0,12.2-11.19l.17-.33L813,308A5.52,5.52,0,0,1,810.54,306.47Z"/><path class="cls-4" d="M802.53,354.8H555.81a1.4,1.4,0,0,1-1.4-1.41h0a1.4,1.4,0,0,1,1.4-1.4H802.53a1.4,1.4,0,0,1,1.4,1.4h0A1.4,1.4,0,0,1,802.53,354.8Z"/><circle class="cls-4" cx="580.34" cy="397.55" r="30.14"/><rect class="cls-7" x="733.84" y="382.83" width="39.95" height="28.04"/><polygon class="cls-4" points="733.84 382.83 753.82 396.85 773.79 382.83 733.84 382.83"/><path class="cls-8" d="M810.54,390.58l-1.19-1.32a5.48,5.48,0,0,1,.39-7.74l2-1.81a5.43,5.43,0,0,1,3.67-1.42,5.52,5.52,0,0,1,4.07,1.8l1.19,1.32a4.75,4.75,0,0,1,.43.55l.06.07c1.12,1,2.08,3.3,1.53,6.16a30.72,30.72,0,0,1-27.31,24.7,7.76,7.76,0,0,1-4.71-1,5.88,5.88,0,0,1-1.34-1.08l-1.19-1.32a5.48,5.48,0,0,1,.39-7.73l2-1.82a5.46,5.46,0,0,1,7.73.39l1.2,1.31a5.59,5.59,0,0,1,1.12,1.93l.11.32.31-.13a23,23,0,0,0,12.2-11.19l.17-.33-.37-.11A5.52,5.52,0,0,1,810.54,390.58Z"/><path class="cls-4" d="M802.53,438.91H555.81a1.4,1.4,0,0,1-1.4-1.41h0a1.4,1.4,0,0,1,1.4-1.4H802.53a1.4,1.4,0,0,1,1.4,1.4h0A1.4,1.4,0,0,1,802.53,438.91Z"/><circle class="cls-4" cx="580.34" cy="481.66" r="30.14"/><rect class="cls-9" x="733.84" y="466.94" width="39.95" height="28.04"/><polygon class="cls-4" points="733.84 466.94 753.82 480.96 773.79 466.94 733.84 466.94"/><path class="cls-10" d="M810.54,474.69l-1.19-1.32a5.46,5.46,0,0,1-1.41-3.95,5.52,5.52,0,0,1,1.8-3.79l2-1.81a5.43,5.43,0,0,1,3.67-1.42,5.52,5.52,0,0,1,4.07,1.8l1.19,1.32a4.75,4.75,0,0,1,.43.55l.06.07c1.12,1,2.08,3.3,1.53,6.16A30.72,30.72,0,0,1,795.39,497a7.76,7.76,0,0,1-4.71-1,5.88,5.88,0,0,1-1.34-1.08l-1.19-1.32a5.48,5.48,0,0,1,.39-7.73l2-1.82a5.46,5.46,0,0,1,7.73.39l1.2,1.31a5.59,5.59,0,0,1,1.12,1.93l.11.32.31-.13a23,23,0,0,0,12.2-11.19l.17-.33-.37-.11A5.52,5.52,0,0,1,810.54,474.69Z"/><path class="cls-4" d="M802.53,523H555.81a1.4,1.4,0,0,1-1.4-1.41h0a1.4,1.4,0,0,1,1.4-1.4H802.53a1.4,1.4,0,0,1,1.4,1.4h0A1.4,1.4,0,0,1,802.53,523Z"/><path class="cls-11" d="M587.47,311.58l-.27.24-.28.23-.61.46L582,321.29l-.85-5.06,1.26-2-.46.09c-.4.07-.81.12-1.22.15l-.68,0a11.26,11.26,0,0,1-2.55-.3l1.28,2.07-.8,5.15-4.73-9.3-.64-.55-.08.08c-6.34,5.48-6.25,15.07-6.25,15.47v.35h27.12v-.37C593,316,588.56,312.32,587.47,311.58Z"/><path class="cls-12" d="M580.09,293.35a10.18,10.18,0,1,0,10.18,10.18A10.19,10.19,0,0,0,580.09,293.35Z"/><path class="cls-13" d="M587.47,397.13l-.27.24-.28.23c-.2.16-.4.31-.61.45L582,406.83l-.85-5.05,1.26-2-.47.09a9.53,9.53,0,0,1-1.21.14c-.23,0-.45,0-.68,0a10.73,10.73,0,0,1-2.55-.31l1.28,2.08-.8,5.14-4.73-9.3c-.22-.17-.43-.35-.64-.54l-.08.07c-6.34,5.48-6.26,15.08-6.25,15.48V413h27.12v-.36C593,401.53,588.56,397.86,587.47,397.13Z"/><path class="cls-14" d="M580.09,378.9a10.18,10.18,0,1,0,10.18,10.18A10.18,10.18,0,0,0,580.09,378.9Z"/><path class="cls-15" d="M587.47,481.24l-.27.24-.28.23c-.2.16-.4.31-.61.45L582,490.94l-.85-5.05,1.26-2L582,484a9.53,9.53,0,0,1-1.21.14c-.23,0-.45,0-.68,0a10.73,10.73,0,0,1-2.55-.31l1.28,2.08L578,491l-4.73-9.31c-.22-.17-.43-.35-.64-.54l-.08.07c-6.34,5.48-6.26,15.08-6.25,15.48v.34h27.12v-.36C593,485.64,588.56,482,587.47,481.24Z"/><path class="cls-16" d="M580.09,463a10.18,10.18,0,1,0,10.18,10.18A10.18,10.18,0,0,0,580.09,463Z"/><path class="cls-17" d="M698.8,303.63H628.7a.7.7,0,1,1,0-1.4h70.1a.7.7,0,0,1,0,1.4Z"/><path class="cls-18" d="M715.45,323.25H628.87a.72.72,0,1,1,0-1.4h86.58a.72.72,0,1,1,0,1.4Z"/><path class="cls-19" d="M698.8,386.34H628.7a.71.71,0,0,1,0-1.41h70.1a.71.71,0,0,1,0,1.41Z"/><path class="cls-20" d="M715.45,406H628.87a.72.72,0,1,1,0-1.4h86.58a.72.72,0,1,1,0,1.4Z"/><path class="cls-21" d="M698.8,471.85H628.7a.7.7,0,1,1,0-1.4h70.1a.7.7,0,1,1,0,1.4Z"/><path class="cls-22" d="M715.45,491.47H628.87a.72.72,0,1,1,0-1.4h86.58a.72.72,0,1,1,0,1.4Z"/><path class="cls-23" d="M256.52,422.78c-9.69-3.52-19.37-10.91-25.24-15.92V337.42a17,17,0,0,0-17-17H131.9a17,17,0,0,0-17,17v95a17,17,0,0,0,17,17h82.41a17,17,0,0,0,17-17V419.83C242.08,423.77,270.44,427.85,256.52,422.78Z"/><path class="cls-24" d="M423.94,244.05H279.74a15.51,15.51,0,0,0-15.51,15.52v18a15.5,15.5,0,0,0,15.51,15.51h22.9c1.77,4.57,4.06,9.65,6.44,12.62,11.22,14,23.84,12.62,23.84,12.62-11.15-4.29-16-16.44-18.09-25.24H423.94a15.51,15.51,0,0,0,15.52-15.51v-18A15.52,15.52,0,0,0,423.94,244.05Z"/><path class="cls-25" d="M747,622.38l-44.36,26.16a6.8,6.8,0,0,0,5.91,3.47h85a6.83,6.83,0,0,0,6.21-4l-43.46-25.63-4.62,2.73Z"/><path class="cls-26" d="M800.33,645.17V596.39l-42.18,24.87,42.09,24.82A6.84,6.84,0,0,0,800.33,645.17Z"/><path class="cls-27" d="M793.37,586.39H708.54a6.4,6.4,0,0,0-1.52.2,9.72,9.72,0,0,1-2.29.21H655.56a3.66,3.66,0,0,0-3.62,2.64,3.51,3.51,0,0,0,3.4,4.37h47a.1.1,0,0,1,.07,0l49.17,29a.11.11,0,0,0,.13,0l48.58-28.64a.12.12,0,0,0,.07-.11v-.71A7,7,0,0,0,793.37,586.39Z"/><path class="cls-28" d="M701.71,595.68v5.14h-31a3.51,3.51,0,1,0,0,7h31v7H683.37a3.51,3.51,0,0,0,0,7h18.34v23.32a6.58,6.58,0,0,0,.19,1.55l43.18-25.46Z"/><path class="cls-29" d="M535.87,87.06a8.31,8.31,0,0,0-4.09-1H476.56A8.59,8.59,0,0,0,468,94.6v4.28h-3.25a1.57,1.57,0,0,0-1.57,1.58v7.88a1.57,1.57,0,0,0,1.57,1.57H468v5.92h-3.25a1.57,1.57,0,0,0-1.57,1.57v7.89a1.57,1.57,0,0,0,1.57,1.57H468v5.92h-3.25a1.57,1.57,0,0,0-1.57,1.57v7.88a1.57,1.57,0,0,0,1.57,1.57H468v5.93h-3.25a1.57,1.57,0,0,0-1.57,1.57v7.88a1.57,1.57,0,0,0,1.57,1.57H468v5.14a8.59,8.59,0,0,0,8.58,8.59h55.22a8.49,8.49,0,0,0,.88,0,8.28,8.28,0,0,0,3.21-1,8.39,8.39,0,0,0,2-1.48,8.52,8.52,0,0,0,2.52-6.07V94.6a8.56,8.56,0,0,0-4.5-7.54Zm-10.2,17.12a1.66,1.66,0,0,0-1.34-.56,1.86,1.86,0,0,0-1.34.56l-6.3,6.33,0-21.35H531.9l0,21.39Z"/><path class="cls-30" d="M958.49,218c-32.36,0-58.59,18.33-58.59,40.94,0,17.2,15.17,31.92,36.66,38l-9.63,25.82,35.38-22.94c30.57-1.38,54.77-19.14,54.77-40.86C1017.08,236.34,990.85,218,958.49,218Z"/><path class="cls-4" d="M986.87,242.65H925.19a.7.7,0,0,1,0-1.4h61.68a.7.7,0,1,1,0,1.4Z"/><path class="cls-4" d="M973.7,253.16H925a.72.72,0,0,1,0-1.4H973.7a.72.72,0,0,1,0,1.4Z"/><path class="cls-4" d="M1000,272.79h-74.7a.71.71,0,1,1,0-1.4H1000a.71.71,0,1,1,0,1.4Z"/><path class="cls-4" d="M1000,263h-74.7a.71.71,0,1,1,0-1.4H1000a.71.71,0,1,1,0,1.4Z"/><path class="cls-4" d="M379.54,255.26H279.38c-.63,0-1.14-.31-1.14-.7s.51-.7,1.14-.7H379.54c.63,0,1.14.32,1.14.7S380.17,255.26,379.54,255.26Z"/><path class="cls-4" d="M358.16,265.78h-79a.72.72,0,1,1,0-1.4h79a.72.72,0,1,1,0,1.4Z"/><path class="cls-4" d="M400.93,285.4H279.62c-.76,0-1.38-.31-1.38-.7s.62-.7,1.38-.7H400.93c.76,0,1.38.32,1.38.7S401.69,285.4,400.93,285.4Z"/><path class="cls-4" d="M400.93,275.59H279.62c-.76,0-1.38-.31-1.38-.7s.62-.7,1.38-.7H400.93c.76,0,1.38.31,1.38.7S401.69,275.59,400.93,275.59Z"/><path class="cls-4" d="M196.75,353.39H137.33a.7.7,0,0,1,0-1.4h59.42a.7.7,0,0,1,0,1.4Z"/><path class="cls-4" d="M184.06,363.91H137.19c-.29,0-.53-.32-.53-.7a.63.63,0,0,1,.53-.7h46.87a.63.63,0,0,1,.54.7A.64.64,0,0,1,184.06,363.91Z"/><path class="cls-4" d="M209.44,383.53h-72a.71.71,0,1,1,0-1.4h72a.71.71,0,1,1,0,1.4Z"/><path class="cls-4" d="M209.44,373.72h-72a.71.71,0,1,1,0-1.4h72a.71.71,0,1,1,0,1.4Z"/><path class="cls-4" d="M196.75,394.05H137.33a.71.71,0,0,1,0-1.41h59.42a.71.71,0,0,1,0,1.41Z"/><path class="cls-4" d="M184.06,404.56H137.19a.73.73,0,0,1,0-1.4h46.87a.72.72,0,0,1,0,1.4Z"/><path class="cls-4" d="M209.44,424.19h-72a.71.71,0,1,1,0-1.41h72a.71.71,0,1,1,0,1.41Z"/><path class="cls-4" d="M209.44,414.37h-72a.71.71,0,1,1,0-1.4h72a.71.71,0,1,1,0,1.4Z"/><path class="cls-31" d="M280.91,214.28a3.21,3.21,0,0,1-3.21,3.21,40.84,40.84,0,0,0-40.79,40.79,3.21,3.21,0,0,1-6.42,0,47.27,47.27,0,0,1,47.21-47.21A3.21,3.21,0,0,1,280.91,214.28Z"/><path class="cls-32" d="M281.43,230a3.21,3.21,0,0,1-3.21,3.21,25.63,25.63,0,0,0-25.61,25.61,3.21,3.21,0,1,1-6.41,0,32.06,32.06,0,0,1,32-32A3.21,3.21,0,0,1,281.43,230Z"/><rect class="cls-33" x="302.78" y="412.97" width="298.59" height="485.04" rx="16.82"/><path class="cls-34" d="M601.37,737.5V881.18A16.87,16.87,0,0,1,584.55,898H319.6a16.87,16.87,0,0,1-16.82-16.83V568.56c36.16,36.83,84,76.28,129,84.13C511.89,666.68,579.71,681.93,601.37,737.5Z"/><path class="cls-35" d="M392.49,680.72l-11.21,164,33.64,4.2,4.65-89.5a1.8,1.8,0,0,1,3.57-.16l11.41,79.85,35-1.4V683.53Z"/><path class="cls-36" d="M401.61,528.62s-7,2.81-9.82,7-25.23,47.66-35,49.07-25.3,1.76-25.3,1.76v25.18s15.48-.31,21.09-.31,15.42-2.8,23.83-12.62,28-29.43,33.65-39.25S411.42,521.61,401.61,528.62Z"/><path class="cls-37" d="M412.82,527.22s19.63,1.4,33.64,8.41a183.53,183.53,0,0,1,26.64,16.82l-19.63,30.84H415.62l-7-35Z"/><path class="cls-38" d="M415.62,523s-10.55-2.29-18.59,8-5.24,56.51-5.24,71.93-7,102.33-5.6,105.14,15.42,12.61,22.42,15.42,3.92-40.43,3.92-40.43,8.7,39,12.91,40.43,43.45-1.4,47.66-12.62-2.8-54.67-1.4-63.08,18.22-82.71,14-88.32-22.43-18.22-36.45-23.83c-.52-.21,1.52,13.14-2.81,21-7,12.82-21.59,22.73-22.42,22.43-6.22-2.27.55-16.09,0-29.44C423.47,536.09,415.62,523,415.62,523Z"/><path class="cls-39" d="M511,554.41c0-6.73,0-16.84-5.61-22.45s-3.37-19.09-1.12-23.58,4.49-2.24,4.49,0-1.12,6.74-1.12,7.86,2.24,2.25,2.24,2.25,3.37-20.21,4.49-25.83,7.86-2.24,9,1.13,5.62,33.68,4.5,38.17-2.25,24.7-2.25,24.7H512.1Z"/><path class="cls-40" d="M503.94,549.65l-4.21,35.05s-7.52-23.44-20.58-31.35-13.06,41.16-10.26,48.17,15.42,15.42,23.83,26.63,14,16.83,22.43,16.83,12.62-14,14-36.45S532,555.26,532,555.26Z"/><path class="cls-41" d="M418.43,488s-4.21,40.65-2.81,51.87,8.42,18.22,16.83,16.82,23.83-12.62,28-21,8.41-5.61,11.22-9.81,1.4-15.42-2.81-11.22c0,0,4.21-19.62,1.41-23.83S436.65,462.74,418.43,488Z"/><path class="cls-42" d="M468.89,514.6,460.48,530s5.61-22.42,2.81-26.63-4.21-11.21-11.22-9.81-14,8.41-22.43,4.2-15.42-9.81-14-14,12.62-15.42,23.84-12.61,25.23,7,29.43,11.21,4.21,11.22,4.21,11.22,4.68,11.05-1.86,20.24Z"/><path class="cls-43" d="M456.73,849.5a17.57,17.57,0,1,0,17.57,17.57A17.56,17.56,0,0,0,456.73,849.5Z"/><rect class="cls-43" x="331.45" y="459.59" width="250.58" height="371.18"/><path class="cls-44" d="M456.74,844.33a22.4,22.4,0,1,0,15.84,6.56A22.27,22.27,0,0,0,456.74,844.33Zm0,40.3a17.57,17.57,0,1,1,17.57-17.56A17.56,17.56,0,0,1,456.73,884.63Z"/><path class="cls-45" d="M590.28,402.22H323.2a35.13,35.13,0,0,0-35.13,35.13V874.09a35.12,35.12,0,0,0,35.13,35.13H590.28a35.12,35.12,0,0,0,35.13-35.13V437.35A35.13,35.13,0,0,0,590.28,402.22ZM456.74,414.05a4.92,4.92,0,1,1-4.92,4.91A4.91,4.91,0,0,1,456.74,414.05ZM438.32,433.9h36.83a4.9,4.9,0,1,1,0,9.8H438.32a4.9,4.9,0,0,1,0-9.8ZM421.86,435a3.82,3.82,0,1,1-3.81,3.81A3.81,3.81,0,0,1,421.86,435Zm34.88,456.34a24.6,24.6,0,1,1,24.6-24.57A24.58,24.58,0,0,1,456.74,891.32ZM582,830.77H331.44V459.58H582Z"/><path class="cls-46" d="M461.65,419a4.92,4.92,0,1,1-4.91-4.91A4.91,4.91,0,0,1,461.65,419Z"/><path class="cls-47" d="M425.69,438.79a3.82,3.82,0,1,1-3.83-3.81A3.82,3.82,0,0,1,425.69,438.79Z"/><path class="cls-48" d="M480.05,438.79a4.91,4.91,0,0,1-4.9,4.91H438.32a4.9,4.9,0,0,1,0-9.8h36.83A4.9,4.9,0,0,1,480.05,438.79Z"/><circle class="cls-49" cx="456.28" cy="782.36" r="33.64"/><path class="cls-50" d="M461.49,777.48l-1.19-1.31a5.39,5.39,0,0,1-1.41-3.95,5.45,5.45,0,0,1,1.79-3.79l2-1.82a5.49,5.49,0,0,1,7.74.39l1.19,1.32a6.23,6.23,0,0,1,.44.55l.05.06c1.13,1,2.08,3.3,1.53,6.17a30.73,30.73,0,0,1-27.31,24.7,7.73,7.73,0,0,1-4.71-1,5.34,5.34,0,0,1-1.33-1.08l-1.2-1.31a5.49,5.49,0,0,1,.39-7.74l2-1.82a5.49,5.49,0,0,1,7.74.39l1.19,1.32a5.37,5.37,0,0,1,1.13,1.93l.1.31.32-.12a23.08,23.08,0,0,0,12.19-11.19l.17-.34-.36-.11A5.38,5.38,0,0,1,461.49,777.48Z"/><rect class="cls-51" x="513.05" y="769.04" width="36.45" height="23.83"/><polygon class="cls-52" points="513.05 769.04 531.27 780.95 549.5 769.04 513.05 769.04"/><path class="cls-53" d="M384.77,780.88a1.36,1.36,0,0,0-1.36,1.36,8.16,8.16,0,0,1-16.31,0,1.36,1.36,0,1,0-2.71,0A10.88,10.88,0,0,0,373.9,793v6.89h-5a1.84,1.84,0,1,0,0,3.67h12.74a1.84,1.84,0,1,0,0-3.67h-5V793a10.89,10.89,0,0,0,9.46-9.73l-.41,0,.41,0c0-.34.05-.69.05-1A1.36,1.36,0,0,0,384.77,780.88Z"/><rect class="cls-54" x="369" y="769.55" width="12.52" height="2.03"/><path class="cls-55" d="M375.26,760.63a6.26,6.26,0,0,0-6.26,6.26v.63h12.52v-.63A6.26,6.26,0,0,0,375.26,760.63Z"/><path class="cls-56" d="M369,781.44a6.26,6.26,0,0,0,12.52,0v-3.77H369Z"/><rect class="cls-57" x="369" y="773.61" width="12.52" height="2.03"/><path class="cls-58" d="M675,695.44s15.42,0,19.63,15.42,8.41,39.25,2.8,40.66-19.62-4.21-22.43,0-5.6,15.42-5.6,15.42l-29.44-2.81s12.61-21,11.21-29.44S628.7,696.84,675,695.44Z"/><path class="cls-59" d="M677.77,689.83s14-2.8,19.62,5.61,7.28,20.46-1.27,21.44-8.54-6-8.54-6,1.4,21-4.21,25.23,7,14,1.41,18.23-23.83-1.4-25.24-7-5,2.8-13,4.21-16.43,0-17.84-11.22,0-40.65,8.41-44.86S677.77,689.83,677.77,689.83Z"/><path class="cls-60" d="M940.24,507.73l-17.42-6.84A57.77,57.77,0,0,1,890.15,426l10.45-26.6a57.75,57.75,0,0,1,74.86-32.67l17.44,6.85a59,59,0,0,1,6.73,3.17l.8.32c15.13,3.8,35.15,21.4,43.37,51.06,38.42,137.88-19.93,286.51-141.9,361.44-16,9.86-33.48,14.23-49.08,12.83a57.82,57.82,0,0,1-17.69-3.9l-17.44-6.85A57.81,57.81,0,0,1,785,716.81l10.44-26.61a57.72,57.72,0,0,1,74.86-32.65l17.44,6.84a57.32,57.32,0,0,1,19.71,12.88l2.5,2.51,2.37-2.64A243.21,243.21,0,0,0,975,514.23v-4l-3.93.68A57.73,57.73,0,0,1,940.24,507.73Z"/><path class="cls-61" d="M673.56,905.72l49.07-32.25,12.61,11.22,65.59-50a21.07,21.07,0,0,1,29.8,4.35l58.81,80.73,38,19a4,4,0,0,1-1.8,7.62H869.12a8.57,8.57,0,0,1-8.55-9.1l.84-13.33L812.9,879.07a9,9,0,0,0-13.39,1.3c-14.09,19.38-51.11,66-81.09,66C680.57,946.37,673.56,905.72,673.56,905.72Z"/><path class="cls-62" d="M642.72,905.72l49.07-32.25,12.61,11.22,65.59-50a21.07,21.07,0,0,1,29.8,4.35l58.81,80.73,38,19a4,4,0,0,1-1.8,7.62H838.28a8.57,8.57,0,0,1-8.55-9.1l.84-13.33-48.51-44.87a9,9,0,0,0-13.39,1.3c-14.09,19.38-51.11,66-81.09,66C649.73,946.37,642.72,905.72,642.72,905.72Z"/><path class="cls-63" d="M653.94,772.54s58.87-4.2,72.89-11.21,47.66-30.84,47.66-30.84l7-12.62,9.82-7-.94,6.21s-7.47,6.41-8.88,10.61,0,23.84,0,18.23-35,29.44-51.86,35-72.9,18.23-72.9,18.23Z"/><path class="cls-64" d="M638.52,758.52s35,0,35,2.81,0,16.82,5.61,25.23,28,40.65,23.83,47.66-12.62,15.42-15.42,18.23,9.81,14,4.21,21l-49.07,32.25s-25.23-50.47-23.83-79.91,19.63-53.27,19.63-57.47Z"/><path class="cls-65" d="M646.93,790.77s0-12.62,12.61-11.22,44.86,33.65,58.88,32.24,57.48-22.43,63.08-28,5.61-18.23,9.82-23.83a84.25,84.25,0,0,1,7-8.41l4.2,2.8-5.61,9.81v7l15.42,2.8,21-4.2,2.81,4.2L832,782.36l-17.36,8s-17.69-1-21.89,1.81-63.08,46.26-75.7,46.26-47.66-23.83-47.66-23.83,0,8.41-7,9.81S639.92,813.2,646.93,790.77Z"/><path class="cls-66" d="M834.07,905s-12.61-9.82,0-19.63,22.43-18.22,26.64-14,29.44,43.46,29.44,43.46l41.65,21.5a5.29,5.29,0,0,1,2.52,2.83l.82,2.19a5.27,5.27,0,0,1-4.93,7.12H862.09a5.27,5.27,0,0,1-5.26-5.58l1.07-18.25Z"/><path class="cls-67" d="M801.83,905s-12.62-9.82,0-19.63,22.43-18.22,26.63-14,29.44,43.46,29.44,43.46l41.66,21.5a5.28,5.28,0,0,1,2.51,2.83l.83,2.19a5.27,5.27,0,0,1-4.94,7.12H829.85a5.27,5.27,0,0,1-5.26-5.58l1.07-18.25Z"/><path class="cls-68" d="M1004.4,862.26s2.8-100.93-5.61-110.74-15.42-40.66-12.62-54.68,15.42-37.85,0-32.24-30.84,47.66-21,67.29-11.21,58.88-8.41,72.89,37.85,63.09,37.85,63.09Z"/><path class="cls-69" d="M998.79,849.64s-26.64-25.23-26.64-44.86,1.41-46.26-19.62-63.08-1.4-49.06-8.41-57.47-37.85,32.24-33.65,49.06,27.62,33,29.93,44.54-1.89,55,21.94,71.81S998.79,849.64,998.79,849.64Z"/><path class="cls-70" d="M1009,847.31s-1.13-14.65,11.27-33.82,22.55-35,23.68-48.47-13.53-22.55-11.28-32.7,21.42-29.31,11.28-36.07-30.44,10.14-35,32.69,4.51,40.59,0,50.73-13.53,7.89-14.66,12.4,4.51,6.77,4.51,18-24.8,44-24.8,44Z"/><path class="cls-4" d="M974.26,851.05a.69.69,0,0,1-.39-.12c-12.49-8.32-19.48-57.47-22.46-78.46l-.28-1.93c-1.76-12.34-9.14-20.72-15.07-27.45-3.37-3.81-6.27-7.11-7.33-10.28-2.85-8.55,8-37.11,8.42-38.32a.71.71,0,0,1,.91-.4.69.69,0,0,1,.4.9c-.11.29-11.09,29.3-8.4,37.38,1,2.9,3.79,6.09,7.05,9.8,6,6.87,13.59,15.41,15.41,28.17l.28,1.94c3,20.8,9.88,69.51,21.84,77.48a.7.7,0,0,1-.38,1.29Z"/><path class="cls-4" d="M987.75,852.61l-.17-2.21c-.08-1-7.78-99-14-118.58-6.31-19.91,5.8-53.43,6.32-54.84a.7.7,0,0,1,.9-.42.69.69,0,0,1,.41.9c-.12.34-12.46,34.48-6.3,53.93,5.82,18.34,12.67,101.6,13.88,116.68,4.28-7.29,19.35-33.16,20.52-37.85a23.07,23.07,0,0,0,.51-4.38c.27-4.79.58-10.22,8.18-15.64,10.12-7.24,4.49-39.92,2.52-49.76-2.84-14.17,12.12-33.4,12.75-34.22a.71.71,0,0,1,1.11.87c-.16.19-15.19,19.53-12.49,33.07,2.58,12.89,7.44,43.66-3.08,51.18-7.05,5-7.32,9.89-7.59,14.58a24.76,24.76,0,0,1-.55,4.64c-1.41,5.64-21,38.74-21.8,40.14Z"/><rect class="cls-71" x="939.21" y="832.12" width="89.72" height="114.95" rx="17.89"/><path class="cls-72" d="M281.15,516.71s19.52,2.1,16.72,28.73-5.61,35-19.63,30.85l-8.41,23.83L247.4,590.3s11.22-19.62,7-26.63-14.12-21.85-8.46-36.16S281.15,516.71,281.15,516.71Z"/><path class="cls-73" d="M279.65,507.6s18.22,0,22.43,12.61c0,0-4.21,21-16.83,19.63s-1.4,21-9.81,28-26.63,9.82-33.64,5.61c0,0,9.81-4.2,4.2-12.61s-19.62-21-16.82-29.44,8.41-23.83,29.44-23.83Z"/><path class="cls-74" d="M241.8,516s-2.81-14-12.62-14-22.43,12.61-23.83,36.45-16.82,44.85-28,33.64c0,0,2.81,25.23,25.23,18.22S241.8,516,241.8,516Z"/><path class="cls-75" d="M291.88,945H244.6L229.18,696.84,274,711.79C263.55,741,248.4,788.93,260,788a48.07,48.07,0,0,1,22.29,3.91c.42,18,.57,34.62.11,43.88-1.37,27.91-15.39,91-15.39,91l26.09,13A2.74,2.74,0,0,1,291.88,945Z"/><path class="cls-76" d="M253.77,945H209.55s-4.2-14,0-25.23,2.81-57.48,5.61-71.5,9.81-18.22,11.22-28c.59-4.14-.56-16.27-2.43-29.74,9.27-2.13,27.65-4.32,42.83,6.37-10.32,40.71-25.52,95.59-27.79,104.67-2.8,11.22-5.6,25.23-5.6,25.23l21.75,13.42A2.6,2.6,0,0,1,253.77,945Z"/><path class="cls-77" d="M282.31,791.87A48.07,48.07,0,0,0,260,788c-11.62,1,3.53-46.94,14-76.17l5.63,1.88S281.5,755.66,282.31,791.87Z"/><path class="cls-78" d="M275.44,759.93c-1.54,8.08-4.75,21.47-8.66,36.91-15.18-10.69-33.56-8.5-42.83-6.37-2.52-18.46-6.36-39.47-8.79-46-4.2-11.22,2.81-44.86,11.22-56.08s51.86,12.62,51.86,12.62S281.05,730.49,275.44,759.93Z"/><path class="cls-79" d="M297.87,947.77H240.39a1.4,1.4,0,0,1-1.4-1.4h0a1.4,1.4,0,0,1,1.4-1.4h57.48a1.4,1.4,0,0,1,1.4,1.4h0A1.4,1.4,0,0,1,297.87,947.77Z"/><path class="cls-80" d="M279.65,928.15C273.88,927.79,263.8,945,263.8,945h34.07S302.08,929.55,279.65,928.15Z"/><path class="cls-81" d="M258.62,947.77H205.35a1.4,1.4,0,0,1-1.4-1.4h0a1.4,1.4,0,0,1,1.4-1.4h53.27a1.4,1.4,0,0,1,1.4,1.4h0A1.4,1.4,0,0,1,258.62,947.77Z"/><path class="cls-82" d="M258.62,945s4.2-15.42-18.23-16.82c-5.76-.36-15.84,16.82-15.84,16.82Z"/><path class="cls-83" d="M248.81,583.29s21,5.61,25.23,12.62,26.63,39.25,26.63,51.87-12.59,45.44-12.6,54.26,13,50.14-10.35,42.1-48.44-27.78-61.81-27-2.15-20.28.65-25.88S237.59,584.7,248.81,583.29Z"/><path class="cls-84" d="M199.74,675.82l43.46,42,12.61-14L219.37,659S188.53,660.4,199.74,675.82Z"/><path class="cls-85" d="M264.23,608.53c-5.39-7.18-21-9.82-33.65,7s-40,46.68-33.29,52.07c0,0,22.07-9.6,29.08,0s21-18.43,29.44-18.43S276.84,625.35,264.23,608.53Z"/><polygon class="cls-86" points="258.62 696.84 237.59 719.27 241.8 723.48 261.42 699.65 258.62 696.84"/></svg>