<?xml version="1.0" encoding="utf-8"?>
<!-- Generator: Adobe Illustrator 24.3.0, SVG Export Plug-In . SVG Version: 6.00 Build 0)  -->
<svg version="1.1" id="Layer_1" xmlns="http://www.w3.org/2000/svg" xmlns:xlink="http://www.w3.org/1999/xlink" x="0px" y="0px"
	 viewBox="0 0 9 12" style="enable-background:new 0 0 9 12;" xml:space="preserve">
<style type="text/css">
	.st0{fill:#00B44E;}
</style>
<path class="st0" d="M2,11.2L7.8,6C7.9,5.9,8,5.8,8,5.6c0-0.1-0.1-0.3-0.2-0.4L2,0.1C1.9,0,1.8,0,1.6,0S1.4,0.1,1.3,0.2L0.6,1
	C0.4,1.2,0.4,1.5,0.6,1.7l4.4,3.8c0,0,0,0.1,0,0.1c0,0,0,0.1,0,0.1L0.6,9.6C0.5,9.7,0.5,9.8,0.5,9.9c0,0.1,0,0.3,0.1,0.3l0.7,0.9
	c0.1,0.1,0.2,0.2,0.3,0.2C1.8,11.3,1.9,11.3,2,11.2L2,11.2z"/>
</svg>
