<?xml version="1.0" encoding="utf-8"?>
<!-- Generator: Adobe Illustrator 24.3.0, SVG Export Plug-In . SVG Version: 6.00 Build 0)  -->
<svg version="1.1" id="Layer_1" xmlns="http://www.w3.org/2000/svg" xmlns:xlink="http://www.w3.org/1999/xlink" x="0px" y="0px"
	 viewBox="0 0 91 91" style="enable-background:new 0 0 91 91;" xml:space="preserve">
<style type="text/css">
	.st0{clip-path:url(#SVGID_2_);}
	.st1{fill:#FFFFFF;}
</style>
<g>
	<defs>
		
			<rect id="SVGID_1_" x="9.7" y="16.9" transform="matrix(0.7071 -0.7071 0.7071 0.7071 -18.8047 45.3994)" width="71.3" height="57.1"/>
	</defs>
	<clipPath id="SVGID_2_">
		<use xlink:href="#SVGID_1_"  style="overflow:visible;"/>
	</clipPath>
	<g class="st0">
		<path class="st1" d="M21.7,52.1c1.1-0.2,2.2-0.4,3.3-0.5c6.8-0.3,13.5-0.7,20.3-0.6c8.3,0,16.6,0.4,24.8,0.7
			c0.9,0,1.8,0.1,2.7,0.2c1.2,0.1,2.3-0.2,2.1-1.5c-0.1-0.8-1.1-1.6-1.9-2c-0.6-0.3-1.5,0.1-2.2,0c-7-0.3-14-0.7-21-0.8
			c-5.8,0-11.7,0.5-17.5,0.7c-3.9,0.2-7.7,0.2-11.6-0.1c1-0.5,2.1-0.9,3.1-1.4c0.8-0.3,1.8-0.4,2.5-1c0.5-0.4,0.7-1.3,1-2
			c-0.7-0.2-1.3-0.6-2-0.5c-0.7,0.1-1.4,0.6-2.1,1c-4.5,2.3-9.1,3.9-14.2,3.8c-1.2,0-2.4,0.2-2.6,1.7c-0.3,1.8,0.9,2.5,2.4,2.9
			c4.5,1.3,9,2.7,13.5,4.1c1.2,0.4,2.4,1,3.5,1.5c1.4,0.6,2.6,0.4,3.2-1c0.6-1.4-0.4-2.1-1.5-2.6c-1.9-0.7-3.8-1.3-5.7-2L21.7,52.1z
			"/>
	</g>
</g>
</svg>
