<?xml version="1.0" encoding="utf-8"?>
<!-- Generator: Adobe Illustrator 24.3.0, SVG Export Plug-In . SVG Version: 6.00 Build 0)  -->
<svg version="1.1" id="freepik_stories-investing" xmlns:svgjs="http://svgjs.com/svgjs"
	 xmlns="http://www.w3.org/2000/svg" xmlns:xlink="http://www.w3.org/1999/xlink" x="0px" y="0px" viewBox="0 0 500 500"
	 style="enable-background:new 0 0 500 500;" xml:space="preserve">
<style type="text/css">
	.st0{display:none;}
	.st1{display:inline;fill:#0B9243;}
	.st2{display:inline;}
	.st3{opacity:0.7;fill:#FFFFFF;enable-background:new    ;}
	.st4{fill:none;stroke:#263238;stroke-linecap:round;stroke-linejoin:round;}
	.st5{fill:#FFFFFF;stroke:#263238;stroke-linecap:round;stroke-linejoin:round;}
	.st6{fill:#449ECD;}
	.st7{clip-path:url(#SVGID_2_);}
	.st8{opacity:0.2;enable-background:new    ;}
	.st9{fill:#263238;}
	.st10{fill:#BFBFBF;stroke:#263238;stroke-linecap:round;stroke-linejoin:round;}
	.st11{fill:#999999;stroke:#263238;stroke-linecap:round;stroke-linejoin:round;}
	.st12{opacity:0.2;fill:#0B9243;enable-background:new    ;}
	.st13{fill:#F1C27D;stroke:#263238;stroke-linecap:round;stroke-linejoin:round;}
	.st14{fill:#999999;}
	.st15{clip-path:url(#SVGID_4_);}
	.st16{opacity:0.4;enable-background:new    ;}
	.st17{fill:#FF9FBF;}
	.st18{opacity:0.2;fill:none;stroke:#FFFFFF;stroke-linecap:round;stroke-linejoin:round;enable-background:new    ;}
	.st19{fill:#0B9243;stroke:#263238;stroke-linecap:round;stroke-linejoin:round;}
	.st20{fill:none;stroke:#263238;stroke-linecap:round;stroke-linejoin:round;stroke-dasharray:6.1144,6.1144;}
	.st21{fill:none;stroke:#263238;stroke-linecap:round;stroke-linejoin:round;stroke-dasharray:8.6586,8.6586;}
	.st22{fill:none;stroke:#263238;stroke-linecap:round;stroke-linejoin:round;stroke-dasharray:6.8151,6.8151;}
	.st23{fill:none;stroke:#263238;stroke-width:3;stroke-linecap:round;stroke-linejoin:round;}
	.st24{fill:none;stroke:#FFFFFF;stroke-linecap:round;stroke-linejoin:round;}
	.st25{fill:#FFFFFF;}
</style>
<g id="freepik--background-simple--inject-10" class="st0">
	<path id="elmwey3hvphp" class="st1" d="M73.8,449.7c0,0-113.9-113,17.1-196.3s77.1-81.4,86-134.1S292.3,30,330.6,104.2
		s1.6,112.4,73.4,157s88.4,139.2,38.8,188.5L73.8,449.7z"/>
	<g id="elbkhb429rypk" class="st2">
		<path id="elll3t179bkri" class="st3" d="M73.8,449.7c0,0-113.9-113,17.1-196.3s77.1-81.4,86-134.1S292.3,30,330.6,104.2
			s1.6,112.4,73.4,157s88.4,139.2,38.8,188.5L73.8,449.7z"/>
	</g>
</g>
<g id="freepik--Bubble--inject-10">
	<polyline id="elzdxhy65sbd9" class="st4" points="267.6,145.7 222.6,145.7 222.6,109.6 	"/>
	<rect id="elpsfzr9ahg4o" x="227.1" y="139.2" class="st4" width="3.6" height="6.6"/>
	<rect id="el3bv8322jru4" x="234.5" y="137.1" class="st4" width="3.6" height="8.6"/>
	<rect id="el4ovech21nh" x="242" y="133.6" class="st4" width="3.6" height="12.1"/>
	<rect id="el4wyha2o9kan" x="249.5" y="130.1" class="st4" width="3.6" height="15.6"/>
	<rect id="elbyo8zub2i3" x="257" y="125.2" class="st4" width="3.6" height="20.5"/>
	<path id="elthc648r2sok" class="st4" d="M222.6,139.4c0,0,28.9-6.1,42.6-24.4"/>
	<polyline id="elincjj1s73we" class="st4" points="263.4,114.4 266.2,113.6 266.2,116.7 	"/>
	<path id="elp0o4430xt5n" class="st4" d="M257,91.7c-1.3-0.3-2.6-0.5-3.9-0.7"/>
	<path id="el167gqrize7r" class="st4" d="M268.4,165.9c10.7,5.5,25.5,5.9,25.5,5.9c-7.5-5.1-12.6-12.6-15.2-17.1
		c7.9-6.8,12.8-16.1,12.8-26.3c0-15.8-11.6-29.3-28.1-35"/>
	<path id="el7ojbxm6n4cw" class="st4" d="M246,166.4c6.2,0,12.3-1.1,18.2-3.1"/>
	<path id="elfgq8unqy5p" class="st4" d="M205.4,145.7c6.5,10.5,18.7,18.2,33.2,20.1"/>
	<path id="elsfr6rk9x4l" class="st4" d="M200.4,128.5c0,2,0.2,4,0.6,6"/>
	<path id="elwfqrrwm6bbj" class="st4" d="M246,90.5c-20.2,0-37.4,11-43.3,26.2"/>
</g>
<g id="freepik--Character--inject-10">
	<path id="elowtjfixddvc" class="st5" d="M324.9,191.6c0,0-19.2,5.7-23.5,14.9s-13,34.9-13,34.9s-8.1,14.3-8.1,18.7
		s12,20.4,17.4,24.7s25.6-24.2,25.6-24.2L324.9,191.6z"/>
	<path id="elb1n52cnplme" class="st6" d="M411.8,319.5c0.2,0.2,1,9.8,1,9.8s5.1,10.1,5.1,25.6s4.9,94.9,4.9,94.9H300
		c0,0,8.5-59.5,20.6-89.6c0,0,0.4-24.7,7-31.6c0,0-2.9-10.1,3-11.4S411.8,319.5,411.8,319.5z"/>
	<g>
		<defs>
			<path id="SVGID_1_" d="M411.8,319.5c0.2,0.2,1,9.8,1,9.8s5.1,10.1,5.1,25.6s4.9,94.9,4.9,94.9H300c0,0,8.5-59.5,20.6-89.6
				c0,0,0.4-24.7,7-31.6c0,0-2.9-10.1,3-11.4S411.8,319.5,411.8,319.5z"/>
		</defs>
		<clipPath id="SVGID_2_">
			<use xlink:href="#SVGID_1_"  style="overflow:visible;"/>
		</clipPath>
		<g id="el89mh77i5l95" class="st7">
			<g id="el59fvkov7jhw">
				<path id="elhp3hncxflrk" class="st8" d="M422.8,449.9H300c0,0,8.5-59.5,20.6-89.6c0,0,0.1-4.7,0.7-10.6
					c5.6,2.7,13.1,6.6,15.2,9.3c3.5,4.5-8.9,11.1-8.9,11.1c2.3,2.5,5.6,3.7,8.9,3.5c5.5-0.5,27.1-5.5,27.1-5.5s-8.1,4.9-7.1,8.4
					s9.9,14.9,14.7,17.7s-9.8-2.8-9.8-2.8s16.6,26.9,26.6,32.2s30.4-11.2,27.5-12.6s-14.8-17.5-12.6-20.3c1.2-1.6,8.6,2.6,16.7,4.6
					C421,421.5,422.8,449.9,422.8,449.9z"/>
			</g>
		</g>
	</g>
	<path id="elbyzxgkj50he" class="st4" d="M411.8,319.5c0.2,0.2,1,9.8,1,9.8s5.1,10.1,5.1,25.6s4.9,94.9,4.9,94.9H300
		c0,0,8.5-59.5,20.6-89.6c0,0,0.4-24.7,7-31.6c0,0-2.9-10.1,3-11.4S411.8,319.5,411.8,319.5z"/>
	<path id="elmunb1ui8lqa" class="st9" d="M330.2,319.9c-0.4,2.9-0.4,5.8,0,8.6c9.1,6.1,19.7,9.6,30.6,10.2c17.7,0.8,42.8-4,49.8-8
		v-9.5L330.2,319.9z"/>
	<path id="elhsq7oexaord" class="st10" d="M341.5,325.1c0,0-1.5,7.9,0,10.9s15.1,3.8,15.1,3.8l-0.4-11.3L341.5,325.1z"/>
	<path id="el6wu6px8u65t" class="st11" d="M388,341.3c-0.3-4.3-1-8.6-2.1-12.8l-4.2,0.1c0,0,2.2,7.7,1,12.7"/>
	<g id="elorhmbch9n2b">
		<path id="elrmnoy0wn5xo" class="st12" d="M323.9,237.6l-0.5,23c-4.2,5.8-8.6,11.4-13.4,16.6c-0.2-3-0.5-6.5-0.9-10.6
			c-1.7-18.7,4.7-33.7,4.3-34.8L323.9,237.6z"/>
	</g>
	<path id="el4tc4wd9wxdi" class="st5" d="M316.1,195c4-1.9,8-3.5,12.1-5c0.5-1.4-0.7-5.4,11.8-11.9s30.6-2.4,30.6-2.4l7,8.7
		c0,0,24.4,9.7,30,14.6s10.4,119.4,5.7,123.6c-13.4,11.7-70.3,13.3-85.8-2.2c-3.3-3.3-5.6-27.5-12-63.4c0,0-12.2-28-11.5-43.3"/>
	<g id="el20vn91vsas7">
		<path id="eluo45leu8guh" class="st12" d="M377.3,186.1c0,0,1.3,12-11,20c0,0-5.7-3.6-9.7-4s-5.4,1-5.4,1s-0.8-4.7,1.1-7.8
			s5.7-0.7,11.9,7.8C364.2,203.1,374.6,198,377.3,186.1z"/>
	</g>
	<g id="elxwjegw6s97">
		<path id="elnzi3jpzjdkg" class="st12" d="M339.1,198.9c0,0-4.9,0.2-7.3,4.2s-3.2,5.5-3.2,5.5s-3.9-3.9-1-15.9
			c-0.3,3.5-0.2,7,0.5,10.4c0,0,2.5-9.3,3.7-9.4S335.5,194.3,339.1,198.9z"/>
	</g>
	<path id="elnl6ica05ea" class="st13" d="M331.8,172.4c4.1,4.5,5.7,10.7,4.2,16.6l8.8,14.2l5.4-12.6c0,0,12.5-3.2,16.2-11.8
		c-5.3-9.9-7.3-21.2-5.8-32.3C363,127.7,331.8,172.4,331.8,172.4z"/>
	<path id="elvu154mcj48" class="st13" d="M361.3,155.2c3.9-28.9-4.8-40.4-27.5-38.8s-23.1,27-17.7,37.8c1.8,3.6,1.2,11.5,12.5,24.2
		c4.3,4.9,15.7,1.2,23.8-6.8"/>
	<path id="elvu5kp4sneyn" class="st4" d="M327.5,148.3c0,0,2.2-3.9,8.3,0"/>
	<path id="elc53jl4anld7" class="st4" d="M318.4,148.3c0,0-3.3-2.7-4.3,0"/>
	<path id="elimorlndgnki" class="st9" d="M332.9,154.2c0.3,1,0,1.9-0.6,2.1s-1.3-0.5-1.6-1.5s0-1.9,0.6-2.1S332.7,153.2,332.9,154.2
		z"/>
	<path id="elboc0wxzl82" class="st9" d="M320.7,154.2c0.3,1,0,1.9-0.6,2.1s-1.3-0.5-1.6-1.5s0-1.9,0.6-2.1S320.4,153.2,320.7,154.2z
		"/>
	<path id="ellxrao5mk03" class="st4" d="M321.2,150.5c2.5,3.4,0.2,7.8-0.6,11.2s4.3,3.1,5.7,2"/>
	<path id="el6hlfffkj7py" class="st14" d="M349,152.7c0,0-2.1-6.8,2.4-10.1s4.3,16.8,4.3,16.8l4.4,2.4c0,0,6.3-16.6,3.2-28.8
		S348,112.2,331,116.8c-22.8,6.2-17.7,24.8-17.7,24.8s1-5.3,2.1-5s4.7,3.8,22.4-2.3c0,0,2,1.7,1.5,6s7.1,8.1,8.3,15.2L349,152.7z"/>
	<g>
		<defs>
			<path id="SVGID_3_" d="M349,152.7c0,0-2.1-6.8,2.4-10.1s4.3,16.8,4.3,16.8l4.4,2.4c0,0,6.3-16.6,3.2-28.8S348,112.2,331,116.8
				c-22.8,6.2-17.7,24.8-17.7,24.8s1-5.3,2.1-5s4.7,3.8,22.4-2.3c0,0,2,1.7,1.5,6s7.1,8.1,8.3,15.2L349,152.7z"/>
		</defs>
		<clipPath id="SVGID_4_">
			<use xlink:href="#SVGID_3_"  style="overflow:visible;"/>
		</clipPath>
		<g id="eld61epbu643k" class="st15">
			<g id="el1aaacpj1crw">
				<path id="elhugb3plkd3k" class="st16" d="M349,152.7c0,0-2.1-6.8,2.4-10.1s4.3,16.8,4.3,16.8l4.4,2.4c0,0,6.3-16.6,3.2-28.8
					S348,112.2,331,116.8c-22.8,6.2-17.7,24.8-17.7,24.8s1-5.3,2.1-5s4.7,3.8,22.4-2.3c0,0,2,1.7,1.5,6s7.1,8.1,8.3,15.2L349,152.7z
					"/>
			</g>
		</g>
	</g>
	<path id="elvjclbb8vry" class="st4" d="M349,152.7c0,0-2.1-6.8,2.4-10.1s4.3,16.8,4.3,16.8l4.4,2.4c0,0,6.3-16.6,3.2-28.8
		S348,112.2,331,116.8c-22.8,6.2-17.7,24.8-17.7,24.8s1-5.3,2.1-5s4.7,3.8,22.4-2.3c0,0,2,1.7,1.5,6s7.1,8.1,8.3,15.2L349,152.7z"/>
	<path id="elh92fci4shom" class="st9" d="M319.6,164.8c1.5,0.6,3.1,0.7,4.7,0.5l1,1.1l0.9-1c0,0,5.6,0.7,8.3,0s5.6,1,7,1
		c0,0,6.1-7.3,5.5-11.1c-0.2-1.6-0.5-3.3-1-4.9c0,0,1.1,1.1,1.8,0.9c0.4-0.1,0.7-0.4,0.8-0.9c0,0,5.9,12,5.8,21.7
		c0,0-6.8,11.2-15.7,11.9c-10,0.7-15.3-3.2-15.3-3.2c-1-3.2-1.3-6.5-0.9-9.8c-0.7-0.7-1.5-1.3-2.4-1.8
		C319.8,167.8,319.6,166.3,319.6,164.8z"/>
	<path id="elkzk8fst6dt" class="st9" d="M315.4,136.7c-3-1.5-4.7-4.9-4.1-8.2c0.9-5.8,5.3-7.8,8.4-9.6c0,0,6.3-5.4,18.1-6.1
		c14.2-0.8,28,6.6,24.8,17.6c0,0-20-8.5-24.8,4C337.8,134.3,324,142.3,315.4,136.7z"/>
	<path id="elq7b3bs5aai" class="st13" d="M350.1,146.5c0,0,4.5-8.6,7.4-5.7s2.2,7,1.1,11s-1.4,3.3-3.2,5.1s-3.9,3.7-4.6,1.7
		c-0.4-1.1-0.5-2.4-0.4-3.6"/>
	<path id="el599vh463ibp" class="st17" d="M336.4,171.4c-8,0.2-10.6-1-10.6-1c-0.2,0.3-0.5,0.4-0.9,0.4l1.3,2.7c0,0,1.3,0.8,4.7,0.8
		C333.9,174.3,336.4,171.4,336.4,171.4z"/>
	<g id="elbulg4jffkba">
		<path id="eltgdizgwv53p" class="st18" d="M329.6,134.6c0,0-3.2-6.5,5.3-10.4s22.3-2.4,25.7,2"/>
	</g>
	<g id="eleg9uime1aqq">
		<path id="eluthpgt70xnq" class="st18" d="M320.8,135.8c0,0-9.4-0.4-2.4-9.5s21.7-12,21.7-12"/>
	</g>
	<path id="elsa06udjfii8" class="st4" d="M377.7,184.3c-1.6,7.9-6.5,14.8-13.5,18.8c0,0-6.5-9.6-9.9-9.4c-1.7,0.1-4.2,5.2-4.2,5.2"
		/>
	<path id="elx4tvuhr5x5" class="st4" d="M328.2,190c-1.2,4.6-0.4,13.7-0.4,13.7s2.8-9.1,3.9-10c2-1.6,8.2,6.3,8.2,6.3"/>
	<path id="elei1l52s4hu5" class="st4" d="M344.7,203.1l-4.7,3.1c0,0,5.3,5.9,4.7,11.4s1.3,17.3,1.3,17.3"/>
	<path id="el5lispd0879u" class="st13" d="M299.5,257.8c3.2,6.4,4.5,13.5,3.7,20.6c0,0-7,9.7-12.4,11.1
		c-13.1,3.5-20.9-25.5-36.6-64.5c-1-2.5,7.9-15.7,7.9-15.7l25.9,40.3C292.9,250.4,297.2,253.4,299.5,257.8z"/>
	<path id="el03m4c0fhbap3" class="st13" d="M261,212.3l-6.6-9c0,0-10-5.7-11.1-2.3c-1.6,5.1-9.8,6.7-9.8,6.7
		c0.7,2.6,8.7,14.4,13.3,17s5,3.4,6.9,4c4.7,1.3,5.9-2.1,5.9-2.1"/>
	<path id="el5o2gpd2exy4" class="st19" d="M208.1,251.5c0,0-36.5-33.9,8.8-46.2s33.4,32.6,33.4,32.6l-3,0.5c0,0,11.9-40.2-28.9-29.7
		s-8.7,40.7-8.7,40.7L208.1,251.5z"/>
	<path id="elys6nq8uh14" class="st13" d="M256.6,218.4c-7.7-3.7-5-10.6-12.5-14.9c-2-1.2-8.5-0.4-10.5-1.9c-3.1-2.1-2-3.6-1.9-3.9
		c0.1-0.6,2.3,1.3,9.6-0.8c2.9-0.8,11,1.7,13.5,3.9c5.9,5.1,11.1,11.2,10.5,15.9c-0.3,2.7-3.4,3.8-3.4,3.8"/>
	<path id="elgtf237002om" class="st13" d="M234.6,206.8c0,0,6.4-1.6,8.5-1.6c2.8,0,3.7,0.4,4.4,1.6c0.4,0.9,0.3,1.8-0.1,2.7
		c1,0.5,1.9,1.3,2.3,2.4c0.2,1.1,0,2.3-0.6,3.3c1.1,0.3,2.1,0.9,2.9,1.8c0.8,0.8,0.9,2.1,0.2,3c0,0,3.6,2.5,1.6,4s-7.5,3.7-10,3.5
		S225.6,208.2,234.6,206.8z"/>
	<path id="elnqgbes2fkda" class="st4" d="M247.4,209.6c0,0-10.2,3.1-13,3.1"/>
	<path id="eltmkjotql3a" class="st4" d="M249,215.3c0,0-8.7,3.1-10.5,3.5"/>
	<path id="elqu7zphb00bk" class="st4" d="M252.1,220c-3.1,1.3-6.3,2.4-9.6,3.3"/>
	<path id="el8rji3m8kfvo" class="st19" d="M207.4,246.3c0,0,11.2-19.2,39-15.7l22.9,47.6c0,0-14.3,27.2-54.9,20.8L207.4,246.3z"/>
	<path id="elw1z4odcllw" class="st19" d="M218.2,284.4c0,0-24.4-18.1-41,0.3l7.5,5.6c0,0,7.7-16.2,33.8,3.8"/>
	<path id="elksx3kt10kwl" class="st19" d="M209.7,246.5c0,0,26.4,2.6,34.5-14.6"/>
	<path id="el45do1deo9ay" class="st19" d="M163.2,286.3c0,0,10.4-7.3,19.6-1.9c5.3,3,8.1,9,7,15C189.8,299.4,176,300.5,163.2,286.3z
		"/>
	<path id="elkswc3x2zzv9" class="st19" d="M168.3,286.4c0,0,16.1,4.3,21.5,13.1"/>
	<path id="eliu3b716zbye" class="st19" d="M230.6,234.2l-1.9-7.8c0,0-10.4-0.3-14,5.7l4.6,6.1"/>
	<path id="elklu7vd7vlqb" class="st4" d="M230,235.9c-2.1,1.1-4.3,1.8-6.7,2.1"/>
	<path id="elaibkvkagsm9" class="st4" d="M221.3,285.9c0,0,2.4,3.2-0.6,7.2"/>
	<g id="els9aeevggopc">
		<path id="elelo1o3hb2vu" class="st12" d="M408.7,246.7c0,0-9.7,33.3-31,50c-9.7,7.6-54.3-4.7-54.3-4.7l2.9-17.3l14.6-6.9
			c0,0,25.8-40.4,39.8-44.5S408.7,246.7,408.7,246.7z"/>
	</g>
	<path id="elqeqydq9xmp" class="st5" d="M396.1,199.8c-10.3,0.3-37.3,49.9-37.3,49.9c-7.3,2.8-3.8,9.2-3.8,9.2s17.2,21.8,20.4,23.7
		c8,4.6,10.9-3.5,10.9-3.5s33.8-30.7,31.5-55.7s-10-24.4-10-24.4"/>
	<path id="el6fzeyyz5ynx" class="st13" d="M356.7,256.9L346.4,268c-21.9-2.1-61.8,14.5-73.3,8.4c-6.7-3.5-22.8,0.1-25.2,1.3
		s-7.5,7.5-5.6,8.3s6-2.9,8.3-2.6c2.2,0.2,4.3,0.1,6.5-0.1c0,0-10.2,9.6-12.4,10s-13.8,5.3-9.6,6.2c5.9,1.2,8.1,0.6,8.1,0.6
		s5.3,3.8,9.2,4.1c2,0.2,13.1-1.8,13.1-1.8l10.1-9.7c0,0,67.5,3.5,79.4-1.5c15.5-6.5,20.4-11.9,20.4-11.9S368.8,260.5,356.7,256.9z"
		/>
	<path id="elih3xfboue4" class="st4" d="M346.9,338.5c-0.2,0-5.2,29.5,1.8,35.7c0,0,4.1,14.1,3.3,23.8s4.5,29.4,4.5,29.4l3.5,22.4"
		/>
	<path id="el0eid57edtfzs" class="st4" d="M352,339.4c0,0-2.5,14.6-1.5,19.9s-1.2,10.6-4.2,10.8"/>
	<path id="ell5xaqu5yoth" class="st4" d="M398.6,334.9c0,0,4.5,24.4,12,26.4"/>
	<path id="el4vujzhuhg5g" class="st4" d="M407.8,331.6c2.3,12.2,3.3,24.6,2.8,37c-0.6,21.4,4.3,64.4,4.7,69.7
		c0.3,3.9,0.3,7.8,0,11.6"/>
	<path id="elog8evs57dd" class="st4" d="M367.7,366.7c-1.9,0.8-25.4,7.8-29.9,13.3"/>
	<path id="elvuxiscwgji" class="st4" d="M352,380.6c0,0,16.2,19.7,24.1,21.7"/>
	<path id="el2dcyg463scc" class="st4" d="M344.9,382.5c0,0-24.9,24.5-29.3,21.7"/>
	<path id="el70bz70995tq" class="st4" d="M352.7,411c0,0-6.9,27.2-6.4,30.2s-2.3,8.7-2.3,8.7"/>
	<path id="elozcxj5d6mzn" class="st4" d="M346,304.4c0,0,1.5,7.8,0,12.6s0.1,12,2.2,12.4"/>
	<path id="ely44lvnlw6ed" class="st4" d="M288,249.7c0,0,8,8.6,8,15.4"/>
	<path id="elo82lx4j3c6" class="st4" d="M186.8,304.4c0,0-0.7,2.1-1.6,5.8"/>
	<path id="el8v8s4h5wht" class="st20" d="M183.7,316.1c-0.6,2.7-1.2,5.7-1.8,9"/>
	<path id="el5yvfmpormd4" class="st4" d="M181.4,328.1c-0.3,1.9-0.6,3.9-0.9,5.9"/>
	<path id="elcfzowgyantb" class="st4" d="M173.1,299.2c0,0-1.2,1.9-3,5.2"/>
	<path id="elvnbw3ttiwj" class="st21" d="M166.2,312.1c-1.8,3.9-3.5,7.9-4.9,12"/>
	<path id="el8wve4roxvj5" class="st4" d="M160,328.2c-0.6,1.9-1.1,3.8-1.5,5.8"/>
	<path id="elx7tb70l78tl" class="st4" d="M163.2,290.9c-1.9,0.7-3.6,1.7-5.2,2.9"/>
	<path id="el8wsmp76w3sr" class="st22" d="M152.6,298c-2.6,2.2-5,4.6-7.2,7.2"/>
	<path id="el1q4osiamv2" class="st4" d="M143.3,307.9c-1.2,1.6-2.3,3.3-3.3,5"/>
	<path id="el3j0lp33jufe" class="st4" d="M358.7,249.6c7.5,1.1,18.5,14.9,20.5,20.1"/>
	<path id="elifbbwiuu3g" class="st4" d="M415.3,231.9c0,0-18,11-36,12.1"/>
	<path id="elnugl2rbem0m" class="st4" d="M287,244c0,0,9.3-1.9,14,5.7c2.9,4.7,5,9.9,6.2,15.3"/>
	<path id="eli19bz2azuip" class="st4" d="M300,227.5c0,0,4.5,9.9,9.8,13.9"/>
	<path id="el4vehssatk02" class="st4" d="M346,256c0.4,4,0.5,8,0.4,12"/>
	<path id="elt6f748m7ynj" class="st4" d="M331.5,302c0,0,19.8,22.2,50.2,16.2"/>
	<path id="eleogmde26v8" class="st9" d="M347.7,209c0,0.6-0.6,1.1-1.2,1.1c-0.6,0-1.1-0.6-1.1-1.2c0-0.6,0.5-1.1,1.1-1.1
		C347.2,207.8,347.7,208.4,347.7,209z"/>
	<path id="elxmh6g0x5e1" class="st9" d="M349.1,238.4c0,0.6-0.6,1.1-1.2,1.1c-0.6,0-1.1-0.6-1.1-1.2c0-0.6,0.5-1.1,1.1-1.1
		C348.6,237.3,349.1,237.8,349.1,238.4C349.1,238.4,349.1,238.4,349.1,238.4z"/>
</g>
<g id="freepik--Plant--inject-10">
	<path id="elycxq4fz4t6" class="st23" d="M123.5,392.5c0,0,16.2-5.7,5.6-37.6s2.9-31.2,8.9-47.4s-2.9-27.1-2.9-27.1"/>
	<path id="elswn3f3bxiw" class="st9" d="M131.5,384.6h-47c0,0,6.3,47.8,8.2,61.6c0.3,2.5,2.3,3.8,4.8,3.8h65.2
		c2.4,0,4.4-1.2,4.8-3.8c1.8-13.8,8.2-61.6,8.2-61.6H131.5z"/>
	<path id="el2hdpvrpvdya" class="st9" d="M82.8,380.6h94.5c1.2,0,2.2,1,2.2,2.2l0,0v3.5c0,1.2-1,2.2-2.2,2.2l0,0H82.8
		c-1.2,0-2.2-1-2.2-2.2v-3.5C80.5,381.5,81.5,380.5,82.8,380.6L82.8,380.6z"/>
	<line id="ele5juyxjzgpg" class="st24" x1="89.5" y1="388.6" x2="137.2" y2="388.6"/>
	<line id="eldjll5krxwlg" class="st24" x1="143.2" y1="388.6" x2="146.9" y2="388.6"/>
	<line id="elyeva2sh59ec" class="st24" x1="168.9" y1="388.6" x2="162.2" y2="388.6"/>
	<line id="eljbx4gw7c6me" class="st24" x1="93.2" y1="404.2" x2="111.8" y2="404.2"/>
	<line id="elvnv5w9zbm2" class="st24" x1="122.5" y1="404.2" x2="127.5" y2="404.2"/>
	<line id="elbcy20fsqrct" class="st24" x1="167.5" y1="404.2" x2="149.5" y2="404.2"/>
	<line id="el26wnotsl4ef" class="st24" x1="165.5" y1="417.2" x2="162.2" y2="417.2"/>
	<line id="elqq1a0dtl5dc" class="st24" x1="111.8" y1="417.2" x2="104.8" y2="417.2"/>
	<line id="el9t20nv02y0m" class="st24" x1="145" y1="429.9" x2="156.5" y2="429.9"/>
	<line id="elm4p9ubqu3f" class="st24" x1="118.2" y1="429.9" x2="100.2" y2="429.9"/>
	<line id="elkltolqyccva" class="st24" x1="96.5" y1="441.2" x2="102.5" y2="441.2"/>
	<line id="elasehlapd7ym" class="st24" x1="111.8" y1="441.2" x2="146.9" y2="441.2"/>
	<line id="el4jpnpa6lm1r" class="st24" x1="163.9" y1="441.2" x2="158.5" y2="441.2"/>
	<path id="el1faugvn3zeo" class="st19" d="M147.2,415.2c0,9.5-7.7,17.2-17.2,17.2s-17.2-7.7-17.2-17.2c0-9.5,7.7-17.2,17.2-17.2
		c0,0,0,0,0,0C139.5,398.1,147.2,405.7,147.2,415.2z"/>
	<path id="eln5nhvvhiqx" class="st5" d="M128.7,407.3v-1.1h2.7v1.1c2.3,0.4,3.5,1.7,3.5,3.8v0.5h-3.1V411c0-1.1-0.6-1.5-1.6-1.5
		s-1.6,0.4-1.6,1.5s0.6,1.9,2.8,3.2c2.7,1.6,3.6,2.8,3.6,4.6c0,2.1-1.2,3.5-3.5,3.8v1.1h-2.7v-1.2c-2.3-0.4-3.5-1.7-3.5-3.8v-1.1
		h3.1v1.2c0,1.1,0.6,1.5,1.7,1.5s1.7-0.4,1.7-1.5s-0.6-1.9-2.8-3.2c-2.7-1.6-3.6-2.8-3.6-4.6C125.2,409,126.4,407.7,128.7,407.3z"/>
	<path id="ela9y0xun0dki" class="st4" d="M144.2,415.2c0,7.9-6.3,14.3-14.2,14.3s-14.3-6.3-14.3-14.2c0-7.9,6.3-14.3,14.2-14.3
		c0,0,0,0,0,0C137.9,401,144.2,407.4,144.2,415.2z"/>
	<path id="elnefeuz1tlt" class="st23" d="M127.9,350.7c0,0,3.4-17.8,17.8-19.2s16-12.6,16-12.6"/>
	<path id="el754gf27dvze" class="st23" d="M129.3,319.9c0,0-3.5-1.7-16.4-9.6s-12.4-20.4-12.4-20.4"/>
	<path id="eld3y8mduuth5" class="st23" d="M132.1,366.7c0,0-25.3-1-29.1-21.8"/>
	<path id="elrdow4udmeql" class="st25" d="M148.1,271.6c-0.8,6.3-6.5,10.7-12.7,10s-10.7-6.5-10-12.7c0.8-6.3,6.5-10.7,12.7-10
		c0,0,0,0,0,0C144.4,259.6,148.9,265.3,148.1,271.6z"/>
	<path id="el5l96lxtd6" class="st4" d="M148.1,271.6c-0.8,6.3-6.5,10.7-12.7,10s-10.7-6.5-10-12.7c0.8-6.3,6.5-10.7,12.7-10
		c0,0,0,0,0,0C144.4,259.6,148.9,265.3,148.1,271.6z"/>
	<path id="elkwsf291j4cf" class="st4" d="M145.9,271.3c-0.6,5.1-5.2,8.6-10.3,8c-5.1-0.6-8.6-5.2-8-10.3c0.6-5.1,5.2-8.6,10.3-8
		c0,0,0,0,0,0C143,261.7,146.5,266.3,145.9,271.3z"/>
	<path id="elpqspq9v99rg" class="st9" d="M135.4,265.6c0.3-0.4,0.8-0.6,1.4-0.7l0.1-0.8l1.3,0.2l-0.1,0.8c0.5,0.2,0.9,0.5,1.2,1
		c0.2,0.5,0.3,1.2,0.2,1.7v0.3L138,268l0.1-0.4c0.1-0.3,0-0.5-0.1-0.8c-0.1-0.2-0.3-0.3-0.6-0.3c-0.2,0-0.5,0-0.6,0.2
		c-0.2,0.2-0.3,0.5-0.3,0.7c0,0.3,0,0.6,0.1,0.8c0.1,0.2,0.2,0.5,0.4,0.7c0.1,0.2,0.4,0.5,0.7,0.8c0.3,0.3,0.6,0.6,0.8,0.9
		c0.2,0.3,0.4,0.6,0.5,1c0.1,0.4,0.2,0.9,0.1,1.3c0,0.6-0.3,1.2-0.6,1.6c-0.4,0.4-0.9,0.6-1.4,0.7l-0.1,0.7l-1.3-0.2l0.1-0.7
		c-0.5-0.2-1-0.5-1.2-1c-0.3-0.5-0.3-1.2-0.2-1.7l0.1-0.7l1.5,0.2l-0.1,0.8c-0.1,0.7,0.2,1,0.7,1.1s0.9-0.2,0.9-0.9
		c0-0.3,0-0.6-0.1-0.8c-0.1-0.2-0.2-0.5-0.4-0.7c-0.2-0.3-0.4-0.5-0.7-0.8c-0.3-0.3-0.6-0.6-0.8-0.9c-0.2-0.3-0.4-0.6-0.5-1
		C134.6,267.5,134.8,266.5,135.4,265.6L135.4,265.6z"/>
	<path id="el403ywebjsqs" class="st25" d="M112.2,280.6c0.8,6.2-3.5,12-9.8,12.9s-12-3.5-12.9-9.8c-0.8-6.2,3.5-12,9.8-12.9
		C105.5,270,111.3,274.4,112.2,280.6C112.2,280.6,112.2,280.6,112.2,280.6z"/>
	<path id="ellq4wibqaweh" class="st4" d="M112.2,280.6c0.8,6.2-3.5,12-9.8,12.9s-12-3.5-12.9-9.8c-0.8-6.2,3.5-12,9.8-12.9
		C105.5,270,111.3,274.4,112.2,280.6C112.2,280.6,112.2,280.6,112.2,280.6z"/>
	<path id="el9sqqrm6xel5" class="st4" d="M110,280.9c0.7,5-2.9,9.7-7.9,10.3s-9.7-2.9-10.3-7.9c-0.7-5,2.9-9.6,7.9-10.3
		C104.6,272.3,109.3,275.8,110,280.9C110,280.9,110,280.9,110,280.9z"/>
	<path id="elllkj925saec" class="st9" d="M98.4,278.1c0.2-0.5,0.6-0.8,1.2-1l-0.1-0.8l1.3-0.2l0.1,0.8c0.5,0,1,0.3,1.4,0.6
		c0.4,0.5,0.6,1,0.7,1.6v0.3l-1.5,0.2l-0.1-0.4c0-0.3-0.1-0.5-0.3-0.7c-0.4-0.3-0.9-0.2-1.2,0.2c-0.1,0.2-0.2,0.5-0.1,0.8
		c0,0.3,0.1,0.5,0.3,0.8c0.1,0.2,0.3,0.4,0.5,0.6c0.2,0.1,0.5,0.3,0.8,0.6c0.3,0.2,0.7,0.4,1,0.7c0.3,0.2,0.5,0.5,0.7,0.8
		c0.2,0.4,0.4,0.8,0.4,1.2c0.1,0.6,0,1.2-0.2,1.8c-0.2,0.5-0.7,0.8-1.2,1l0.1,0.8l-1.3,0.2l-0.1-0.7c-0.5,0-1-0.2-1.4-0.6
		c-0.4-0.5-0.6-1-0.7-1.6l-0.1-0.7l1.5-0.2l0.1,0.8c0.1,0.7,0.4,1,1,0.9s0.8-0.5,0.7-1.1c0-0.3-0.1-0.5-0.3-0.8
		c-0.1-0.2-0.3-0.4-0.5-0.6c-0.2-0.1-0.5-0.3-0.8-0.6c-0.3-0.2-0.7-0.4-1-0.7c-0.3-0.2-0.5-0.5-0.7-0.8
		C98.1,280.1,98,279,98.4,278.1L98.4,278.1z"/>
	<path id="el416ys7zp3eb" class="st25" d="M111.5,335.3c0.5,6.3-4.2,11.8-10.5,12.3s-11.8-4.2-12.3-10.5
		c-0.5-6.3,4.2-11.8,10.5-12.3C105.5,324.3,111,329,111.5,335.3C111.5,335.2,111.5,335.3,111.5,335.3z"/>
	<path id="elfu516j61nn" class="st4" d="M111.5,335.3c0.5,6.3-4.2,11.8-10.5,12.3s-11.8-4.2-12.3-10.5c-0.5-6.3,4.2-11.8,10.5-12.3
		C105.5,324.3,111,329,111.5,335.3C111.5,335.2,111.5,335.3,111.5,335.3z"/>
	<path id="elngj1mp87fpi" class="st4" d="M109.3,335.4c0.4,5.1-3.4,9.5-8.4,9.9s-9.5-3.4-9.9-8.4c-0.4-5.1,3.4-9.5,8.4-9.9
		c0,0,0,0,0,0C104.4,326.6,108.9,330.4,109.3,335.4z"/>
	<path id="elh1k3sjofa8" class="st9" d="M97.8,332c0.3-0.5,0.7-0.8,1.2-0.9l-0.1-0.8l1.3-0.1l0.1,0.8c0.5,0,1,0.3,1.3,0.7
		c0.4,0.5,0.6,1.1,0.6,1.7v0.3l-1.5,0.1v-0.4c0-0.3-0.1-0.5-0.3-0.8c-0.4-0.3-0.9-0.3-1.2,0.1c-0.1,0.2-0.2,0.5-0.2,0.8
		c0,0.3,0.1,0.5,0.2,0.8c0.1,0.2,0.3,0.4,0.5,0.6c0.3,0.2,0.5,0.4,0.8,0.6c0.3,0.2,0.7,0.5,1,0.8c0.3,0.3,0.5,0.5,0.7,0.9
		c0.2,0.4,0.3,0.8,0.3,1.3c0.1,0.6,0,1.2-0.3,1.7c-0.3,0.5-0.7,0.8-1.2,0.9l0.1,0.8l-1.3,0.1l-0.1-0.8c-0.5,0-1-0.3-1.4-0.7
		c-0.4-0.5-0.5-1.1-0.6-1.7l-0.1-0.7l1.5-0.1l0.1,0.8c0,0.7,0.4,1,0.9,0.9s0.8-0.4,0.8-1.1c0-0.3-0.1-0.6-0.2-0.8
		c-0.1-0.2-0.3-0.4-0.5-0.6c-0.2-0.2-0.4-0.4-0.8-0.6c-0.4-0.2-0.7-0.5-1-0.8c-0.3-0.3-0.5-0.5-0.7-0.9c-0.2-0.4-0.3-0.8-0.3-1.3
		C97.5,333.1,97.6,332.5,97.8,332z"/>
	<path id="elvgsatq6luz" class="st25" d="M178.1,315.6c-2.7,5.7-9.4,8.2-15.2,5.6s-8.2-9.4-5.6-15.2s9.4-8.2,15.2-5.6c0,0,0,0,0,0
		C178.2,303.1,180.7,309.9,178.1,315.6z"/>
	<path id="elx2h47njs2ne" class="st4" d="M178.1,315.6c-2.7,5.7-9.4,8.2-15.2,5.6s-8.2-9.4-5.6-15.2s9.4-8.2,15.2-5.6c0,0,0,0,0,0
		C178.2,303.1,180.7,309.9,178.1,315.6z"/>
	<path id="elg58wvpq4vy6" class="st4" d="M176.1,314.7c-2.1,4.6-7.6,6.6-12.2,4.5c-4.6-2.1-6.6-7.6-4.5-12.2
		c2.1-4.6,7.6-6.6,12.2-4.5C176.2,304.6,178.2,310.1,176.1,314.7C176.1,314.7,176.1,314.7,176.1,314.7z"/>
	<path id="el2o7yk2rojxn" class="st9" d="M167.8,306.1c0.5-0.3,1-0.3,1.5-0.2l0.3-0.7l1.2,0.6l-0.3,0.7c0.4,0.3,0.7,0.8,0.8,1.3
		c0.1,0.6,0,1.2-0.3,1.7l-0.1,0.3l-1.4-0.6l0.2-0.4c0.1-0.2,0.2-0.5,0.1-0.8c-0.1-0.2-0.2-0.4-0.4-0.5c-0.2-0.1-0.4-0.1-0.6,0
		c-0.2,0.1-0.4,0.4-0.5,0.6c-0.1,0.3-0.2,0.5-0.2,0.8c0,0.3,0.1,0.5,0.1,0.8c0.1,0.2,0.2,0.5,0.4,0.9c0.2,0.4,0.4,0.7,0.5,1.1
		c0.1,0.4,0.2,0.7,0.2,1.1c0,0.4-0.1,0.9-0.3,1.3c-0.2,0.6-0.6,1-1.1,1.4c-0.5,0.3-1,0.3-1.5,0.2l-0.3,0.7l-1.2-0.6l0.3-0.7
		c-0.4-0.3-0.7-0.8-0.8-1.3c-0.1-0.6,0-1.2,0.3-1.7l0.3-0.6l1.4,0.6l-0.3,0.7c-0.3,0.6-0.2,1,0.3,1.3s0.9,0,1.2-0.6
		c0.1-0.3,0.2-0.5,0.2-0.8c0-0.3-0.1-0.5-0.1-0.8c-0.1-0.3-0.2-0.6-0.4-0.9c-0.2-0.4-0.4-0.7-0.5-1.1c-0.1-0.4-0.2-0.7-0.1-1.1
		c0-0.4,0.1-0.9,0.3-1.3C166.9,306.9,167.3,306.4,167.8,306.1z"/>
	<path id="eli287msl3c9" class="st19" d="M161.2,320.8c0,0.7,10.6-7,21-2.1c0,0-10.8,9.8-21.3,3.7s-9-21.1-9-21.1
		S162,308.4,161.2,320.8z"/>
	<path id="elvwb506tez8p" class="st19" d="M136.8,281.9c0.3,0.6,5.1-11.7,16.5-13.2c0,0-3.8,14.1-15.9,14.7s-19-12.9-19-12.9
		S130.8,271,136.8,281.9z"/>
	<path id="eldzsclndsa25" class="st19" d="M102.1,294.8c0.4,0.6,3.2-12.3,14.2-15.6c0,0-1.5,14.5-13.3,17s-20.8-9.7-20.8-9.7
		S94.5,285,102.1,294.8z"/>
	<path id="elspljp8b5y1" class="st19" d="M104.4,349.2c0.5,0.5,1.1-12.7,11.4-17.8c0,0,1,14.6-10.2,19s-22.1-6-22.1-6
		S95.2,340.9,104.4,349.2z"/>
	<path id="el72cfi8vsg4c" class="st9" d="M251.5,384.6h-47c0,0,6.3,47.8,8.2,61.6c0.3,2.5,2.3,3.8,4.8,3.8h65.2
		c2.4,0,4.4-1.2,4.8-3.8c1.8-13.8,8.2-61.6,8.2-61.6H251.5z"/>
	<path id="eldnj005m9q88" class="st9" d="M202.8,380.6h94.5c1.2,0,2.2,1,2.2,2.2v3.5c0,1.2-1,2.2-2.2,2.2c0,0,0,0,0,0h-94.5
		c-1.2,0-2.2-1-2.2-2.2v-3.5C200.5,381.6,201.5,380.6,202.8,380.6C202.8,380.6,202.8,380.6,202.8,380.6z"/>
	<line id="el0x8mnk3d9j4n" class="st24" x1="209.5" y1="388.6" x2="257.2" y2="388.6"/>
	<line id="el7v8kvoyq5qo" class="st24" x1="263.2" y1="388.6" x2="266.9" y2="388.6"/>
	<line id="el5gn6gi5pbkq" class="st24" x1="288.9" y1="388.6" x2="282.2" y2="388.6"/>
	<line id="elcmmmstmxjd" class="st24" x1="213.2" y1="404.2" x2="231.9" y2="404.2"/>
	<line id="elpdv1dl2duo" class="st24" x1="242.5" y1="404.2" x2="247.5" y2="404.2"/>
	<line id="eloh7rjtm5xc" class="st24" x1="287.5" y1="404.2" x2="269.5" y2="404.2"/>
	<line id="el9l9gjyfh329" class="st24" x1="285.5" y1="417.2" x2="282.2" y2="417.2"/>
	<line id="elj22mc5px8d" class="st24" x1="231.9" y1="417.2" x2="224.9" y2="417.2"/>
	<line id="el668gtueq2bw" class="st24" x1="265" y1="429.9" x2="276.5" y2="429.9"/>
	<line id="elp95k5tqv8nb" class="st24" x1="238.2" y1="429.9" x2="220.2" y2="429.9"/>
	<line id="el1a34ohjb9sk" class="st24" x1="216.5" y1="441.2" x2="222.5" y2="441.2"/>
	<line id="el1ud1chjjg31" class="st24" x1="231.9" y1="441.2" x2="266.9" y2="441.2"/>
	<line id="elmnq4p5frppd" class="st24" x1="283.9" y1="441.2" x2="278.5" y2="441.2"/>
	<path id="el1pg3cdqqxda" class="st19" d="M267.2,415.2c0,9.5-7.7,17.2-17.2,17.2s-17.2-7.7-17.2-17.2s7.7-17.2,17.2-17.2
		c0,0,0,0,0,0C259.5,398.1,267.2,405.7,267.2,415.2z"/>
	<path id="el7nl2yar2nob" class="st4" d="M264.2,415.2c0,7.9-6.3,14.3-14.2,14.3c-7.9,0-14.3-6.3-14.3-14.2S242.1,401,250,401
		c0,0,0,0,0,0C257.9,401,264.2,407.4,264.2,415.2z"/>
	<polygon id="elt99zl6t6gj8" class="st5" points="250,407.2 245.8,411.3 245.8,408.5 244.5,408.5 244.5,412.6 242.2,414.9 
		244.2,414.9 244.2,421.8 255.8,421.8 255.8,414.9 257.8,414.9 	"/>
	<path id="el50brxzd3mpq" class="st23" d="M250.9,389.5c0,0,6-11.5-8.4-21.5s-17.5-20.4-15.2-28.2"/>
	<path id="elk3u25bzn5rk" class="st23" d="M248.5,373.5c0,0-1.7-7.5,11.5-12.8c13.1-5.3,15.1-21,15.1-21"/>
	<path id="elr24bl11mqy" class="st19" d="M234.6,327.3c2.1,0,1.7,13.2-8,15.7c0,0-4.7-1.5-5.5-7.9c-0.6-3.5,0.8-7.1,3.7-9.2
		c0.6,2.1,1.4,4.1,2.5,6C227.3,332,230.6,327.3,234.6,327.3z"/>
	<path id="eliyqlxonbtph" class="st19" d="M227.3,331.9c0,0-2.7,2.2-0.7,6.3"/>
	<path id="el9g03so1e2x" class="st19" d="M274.4,343c0,0-7-6.4-4.9-11.1c1.4-2.9,3.7-5.3,6.6-6.9c0,0,1.5,2.9,2.4,4.3l3.6-2.1
		C282.1,327.3,289.4,341.5,274.4,343z"/>
	<path id="elyobbc48kbpc" class="st19" d="M278.5,329.4c0,0,4.4,7-1.1,10.5"/>
	<path id="ell2kl91xhdfq" class="st23" d="M253.2,364.6c0,0-6.8-17-1.2-36.1"/>
	<path id="elacrxqb4e4y" class="st19" d="M252.3,328.6c0,0,9-2.9,9-8c-0.1-3.3-1.2-6.4-3.2-9c0,0-2.6,2-3.9,2.9l-2.4-3.4
		C251.8,311.2,239.3,321,252.3,328.6z"/>
	<path id="elx7nkrdlu08" class="st19" d="M254.2,314.5c0,0-6.9,4.6-3.3,10"/>
	<path id="el1r58u1pls77" class="st9" d="M371.5,384.6h-47c0,0,6.3,47.8,8.2,61.6c0.3,2.5,2.3,3.8,4.8,3.8h65.2
		c2.4,0,4.4-1.2,4.8-3.8c1.8-13.8,8.2-61.6,8.2-61.6H371.5z"/>
	<path id="ellrh64jnhlpc" class="st9" d="M322.8,380.6h94.5c1.2,0,2.2,1,2.2,2.2c0,0,0,0,0,0v3.5c0,1.2-1,2.2-2.2,2.2c0,0,0,0,0,0
		h-94.5c-1.2,0-2.2-1-2.2-2.2v-3.5C320.5,381.5,321.5,380.6,322.8,380.6C322.8,380.6,322.8,380.6,322.8,380.6z"/>
	<line id="elz4gy778dgf8" class="st24" x1="329.5" y1="388.6" x2="377.2" y2="388.6"/>
	<line id="elp2qe43ymau" class="st24" x1="383.2" y1="388.6" x2="386.9" y2="388.6"/>
	<line id="elbo01jpk9ul9" class="st24" x1="408.9" y1="388.6" x2="402.2" y2="388.6"/>
	<line id="elwkbrffu5vd" class="st24" x1="333.2" y1="404.2" x2="351.9" y2="404.2"/>
	<line id="el2mprzadbs9v" class="st24" x1="362.5" y1="404.2" x2="367.5" y2="404.2"/>
	<line id="elnubaakiw66i" class="st24" x1="407.5" y1="404.2" x2="389.5" y2="404.2"/>
	<line id="ele5je6jqrfn5" class="st24" x1="405.5" y1="417.2" x2="402.2" y2="417.2"/>
	<line id="elmmkkrnkaljf" class="st24" x1="351.9" y1="417.2" x2="344.9" y2="417.2"/>
	<line id="elf2biv0s0qmg" class="st24" x1="385" y1="429.9" x2="396.5" y2="429.9"/>
	<line id="elwst2naq10ho" class="st24" x1="358.2" y1="429.9" x2="340.2" y2="429.9"/>
	<line id="elt76febx4zfk" class="st24" x1="336.5" y1="441.2" x2="342.5" y2="441.2"/>
	<line id="elin413yl9kd" class="st24" x1="351.9" y1="441.2" x2="386.9" y2="441.2"/>
	<line id="el8a65j7vt47" class="st24" x1="403.9" y1="441.2" x2="398.5" y2="441.2"/>
	<path id="elq5akirwzwre" class="st19" d="M387.2,415.2c0,9.5-7.7,17.2-17.2,17.2s-17.2-7.7-17.2-17.2s7.7-17.2,17.2-17.2
		c0,0,0,0,0,0C379.5,398.1,387.2,405.7,387.2,415.2z"/>
	<path id="el84f9zo9dt6x" class="st5" d="M376.6,413.3v6c0,0-1.3,2.1-6.6,2.1s-6.6-2.1-6.6-2.1v-6"/>
	<polygon id="elmxiyzms15h" class="st5" points="370,409 379.1,412.4 370,415.8 360.9,412.4 	"/>
	<polyline id="elxytyebxb36t" class="st4" points="370,412.4 373.8,414.4 373.8,423.4 	"/>
	<path id="elbmjvt5plj2d" class="st4" d="M384.2,415.2c0,7.9-6.3,14.3-14.2,14.3c-7.9,0-14.3-6.3-14.3-14.2S362.1,401,370,401
		c0,0,0,0,0,0C377.9,401,384.2,407.4,384.2,415.2z"/>
	<path id="elimpwn2bqzl" class="st23" d="M370,393.3c0,0-4.5-11.7,0-26.7"/>
	<path id="elqvwfagnz2z" class="st19" d="M370,354c0,0,14.2,9.7-2,19.3C368,373.3,351.9,363.7,370,354z"/>
	<path id="elvbj3q1algl" class="st4" d="M370,354c0,0,2.5,3.7,0,7c-1.5,2.2-2,4.9-1.4,7.5"/>
</g>
</svg>
