<?xml version="1.0" encoding="utf-8"?>
<!-- Generator: Adobe Illustrator 24.3.0, SVG Export Plug-In . SVG Version: 6.00 Build 0)  -->
<svg version="1.1" id="Layer_1" xmlns="http://www.w3.org/2000/svg" xmlns:xlink="http://www.w3.org/1999/xlink" x="0px" y="0px"
	 viewBox="0 0 96 81" style="enable-background:new 0 0 96 81;" xml:space="preserve">
<style type="text/css">
	.st0{display:none;}
	.st1{display:inline;}
	.st2{fill:#0B9243;}
	.st3{fill:#FFFFFF;}
</style>
<desc>Created with Sketch.</desc>
<g id="Page-1" class="st0">
	<g id="quote" class="st1">
		<path id="Path" class="st2" d="M30.5,36.9c-2.3-0.7-4.7-1-7-1c-3.5,0-6.5,0.8-8.8,1.8c2.2-8.1,7.5-22,18-23.5c1-0.1,1.8-0.8,2-1.8
			L37,4.2c0.2-0.7,0.1-1.4-0.3-2c-0.4-0.6-1-1-1.8-1.1s-1.6-0.2-2.4-0.2C20.1,0.9,7.6,14,2.3,32.9c-3.1,11.1-4,27.7,3.6,38.2
			c4.3,5.9,10.5,9,18.5,9.3h0.1c9.9,0,18.7-6.7,21.3-16.2c1.6-5.7,0.9-11.7-2-16.9C41,42.3,36.2,38.6,30.5,36.9z"/>
		<path id="Path_1_" class="st2" d="M92.5,47.4c-2.9-5.1-7.6-8.8-13.3-10.5c-2.3-0.7-4.7-1-7-1c-3.5,0-6.5,0.8-8.8,1.8
			c2.2-8.1,7.5-22,18-23.5c1-0.1,1.8-0.8,2-1.8l2.3-8.2c0.2-0.7,0.1-1.4-0.3-2s-1-1-1.8-1.1S82,0.9,81.2,0.9
			c-12.5,0-25,13.1-30.3,32c-3.1,11.1-4,27.7,3.6,38.2c4.3,5.9,10.5,9,18.5,9.3h0.1c9.9,0,18.7-6.7,21.3-16.2
			C96.1,58.6,95.4,52.6,92.5,47.4z"/>
	</g>
</g>
<g>
	<path class="st3" d="M9.3,22.4C16.4,9.5,26.2,2.6,38.7,1.9l0.2,0c0.3,0,0.4,0.2,0.4,0.5l0,0.2c0,0.3-0.2,0.4-0.4,0.6
		c-2.8,0.6-4.9,1.1-6.2,1.5C19.4,9.2,10.6,19.1,6.1,34.5C4.9,38.8,4.2,43,4,47c-0.1,2.9-0.1,5.6,0.2,8.3c1.1,9.4,3.8,15.6,7.9,18.5
		c2.7,2,5.6,3.1,8.7,3.3c3,0.2,6.2-0.6,9.7-2.1c6.9-3.1,10.8-7.9,11.6-14.4c0.1-0.6,0.2-1.3,0.2-1.8c0.4-7.3-2.7-12.6-9.2-15.8
		c-2.9-1.4-5.6-2.1-8.2-2.3c-4.1-0.2-7.9,1.1-11.4,4.1c-0.3,0.2-0.5,0.3-0.8,0.2c-0.3,0-0.5-0.1-0.8-0.3c-0.2-0.3-0.3-0.5-0.3-0.8
		c0-0.3,0.1-0.6,0.3-0.9c0.3-0.2,0.5-0.4,0.7-0.4c0.3,0,0.5,0.2,0.8,0.4c0.2,0.3,0.4,0.5,0.3,0.8c0,0.3-0.1,0.5-0.3,0.8l0,0.1
		c-0.4-0.4-0.9-1-1.5-1.7c3.8-3.2,8-4.6,12.7-4.4c2.3,0.1,4.6,0.6,7,1.5c7.7,2.8,11.8,7.9,12.6,15.3c0.1,1.1,0.1,2.2,0,3.2
		c-0.2,4.5-1.9,8.7-5,12.4c-3.9,4.5-8.8,7.1-14.6,7.8c-1.4,0.2-2.8,0.2-4.2,0.2c-4.1-0.2-7.5-1.6-10.2-4C6.5,71.7,4,66.3,2.8,58.9
		c-0.7-4.1-0.9-8.1-0.7-12C2.5,38.5,4.9,30.3,9.3,22.4z M15.6,62c-8-8-12.2-12.3-12.7-13c-0.1-0.1-0.1-0.1-0.1-0.2
		c0-0.1,0.1-0.2,0.2-0.3c0.1-0.1,0.2-0.1,0.3-0.1c0.1,0,0.1,0,0.2,0.1c1.5,1.9,3.7,4.2,6.6,6.9c3.5,3.3,5.8,5.5,6.9,6.5
		c1.4,1.5,3.2,3.9,5.5,7.2c2.2,3.3,4.1,5.7,5.5,7.1c0.1,0.1,0.2,0.3,0.2,0.4c0,0.1-0.1,0.2-0.2,0.3c-0.1,0.1-0.2,0.1-0.3,0.1
		c-0.1,0-0.3,0-0.4-0.1c-1.5-1.4-3.5-3.9-5.8-7.3C19,65.9,17.1,63.4,15.6,62z M8.2,47.2c-2.6-2.8-3.9-5-3.8-6.6l0-0.1
		c0-0.1,0.1-0.1,0.3-0.2c0.2,0,0.3,0.1,0.3,0.3c0.4,2,2.3,4.5,5.5,7.7c0.8,0.8,2.1,1.9,3.9,3.5c1.7,1.5,3,2.7,3.9,3.5
		c2.1,2,4.5,5,7.3,8.9c1.7,2.6,4.5,6.4,8.3,11.3c0.1,0.1,0.2,0.2,0.2,0.3c0,0.1,0,0.1-0.1,0.2c-0.1,0.1-0.2,0.2-0.3,0.2
		c-0.1,0-0.1,0-0.2-0.1c-1.3-1-4.1-4.5-8.3-10.7c-3.1-4.6-5.9-7.9-8.2-10.1C11.8,50.6,8.9,47.9,8.2,47.2z M6.8,62.4
		c-1.5-2-2.2-2.9-2.3-2.9c-0.1,0-0.2-0.1-0.2-0.2l0-0.1c0-0.2,0.1-0.3,0.3-0.3c0.3,0,1.1,0.7,2.2,2.1c1.1,1.4,2.8,3.4,5,6.2
		c2.9,3.7,4.7,5.9,5.4,6.8c1.7,2.2,2.6,3.5,2.7,3.7l0,0.1c0,0.1-0.1,0.3-0.2,0.4c-0.1,0.1-0.2,0.1-0.3,0.1c-0.1,0-0.1,0-0.2-0.1
		c-0.1-0.1-1-1.3-2.8-3.6c-2.1-2.7-3.6-4.7-4.7-6C9.4,65.6,7.7,63.5,6.8,62.4z M9.8,39.3c-1.8-2.6-3-4.2-3.6-4.7
		C6.1,34.6,6,34.5,6,34.4c0-0.1,0-0.1,0.1-0.2c0.1-0.1,0.2-0.1,0.3-0.1l0.2,0c0.8,0.6,2,2,3.5,4c1,1.3,2.4,2.8,4.3,4.6
		c0.1,0.1,0.1,0.2,0.1,0.3l0,0.3c-0.1,0.1-0.2,0.2-0.3,0.2c-0.1,0-0.1,0-0.2-0.1C12.6,42.8,11.2,41.4,9.8,39.3z M17.5,38
		c-3.9-3.3-6.9-6.7-9.2-10.2c-0.1-0.1-0.1-0.2-0.1-0.3c0-0.1,0.1-0.2,0.2-0.3C8.6,27.1,8.7,27,8.8,27C8.9,27,9,27.1,9,27.2
		c0.8,1.3,2.3,3,4.5,5.1c2.2,2.1,3.7,3.8,4.6,5c0.1,0.1,0.1,0.2,0.1,0.3c0,0.1,0,0.2-0.1,0.3c-0.1,0.1-0.2,0.2-0.3,0.2
		C17.7,38.1,17.7,38.1,17.5,38z M16,29.1c-1.8-2.1-3.5-3.8-5.1-5.1c-0.1-0.1-0.1-0.2-0.1-0.3c0-0.1,0-0.3,0.1-0.4
		c0.1-0.1,0.3-0.2,0.4-0.2c0.1,0,0.1,0,0.2,0.1c1.8,1.6,3.5,3.3,5.2,5.2c2.7,3.2,4.2,5.2,4.7,5.9c0.1,0.1,0.1,0.1,0.1,0.2
		c0,0.1-0.1,0.1-0.2,0.2c-0.1,0.1-0.1,0.2-0.2,0.2c-0.1,0-0.1,0-0.2-0.1C20.9,34.8,19.3,32.9,16,29.1z M25,56.5
		c-6-5.3-9.9-10-11.8-14.1c-0.1-0.1-0.1-0.1-0.1-0.2c0-0.1,0.1-0.2,0.2-0.3l0.2,0c0.1,0,0.1,0,0.2,0.1c2.6,4.2,7.1,9,13.3,14.6
		c6,5.4,9.9,9.7,11.8,12.9c0.1,0.1,0.1,0.2,0.1,0.3c0,0.1-0.1,0.3-0.3,0.4c-0.1,0.1-0.2,0.1-0.3,0.1c-0.1,0-0.3-0.1-0.4-0.3
		C35.9,67,31.6,62.5,25,56.5z M19,23.4c-1.5-2-2.8-3.8-3.9-5.7C15,17.6,15,17.6,15,17.5c0-0.1,0.1-0.2,0.2-0.3
		c0.1-0.1,0.3-0.2,0.4-0.2c0.1,0,0.1,0.1,0.2,0.2c1.9,2.6,3.4,4.6,4.5,6c2.6,3.3,3.9,5,3.9,5c0.1,0.1,0.1,0.1,0.1,0.2
		c0,0.1-0.1,0.1-0.2,0.2c-0.1,0.1-0.1,0.2-0.2,0.2c-0.1,0-0.1,0-0.2-0.1C22.7,27.9,21.1,26.1,19,23.4z M19,12.6
		c0.3,0.3,0.6,0.7,1,1.1c0.1,0.1,0.1,0.1,0.1,0.2l-0.1,0.1c-0.1,0.1-0.1,0.1-0.2,0.1c-0.1,0-0.1,0-0.2-0.1c-0.5-0.4-0.8-0.6-1-0.7
		C18.7,13.1,18.8,12.9,19,12.6c0.4,0.6,1,1.5,1.8,2.7c0.7,1.2,1.3,2.1,1.7,2.7c0.4,0.5,1.1,1.3,1.9,2.2c0.9,1,1.6,1.8,1.9,2.3
		c0.1,0.1,0.1,0.2,0.1,0.3c0,0.1,0,0.1-0.1,0.2c-0.1,0.1-0.2,0.1-0.3,0.1l-0.2,0c-1.1-0.6-2.5-2.1-4.1-4.6c-1.3-2-2.5-3.9-3.4-5.5
		c-0.1-0.1-0.1-0.1-0.1-0.2c0-0.1,0.1-0.2,0.2-0.3c0.1-0.1,0.2-0.1,0.3-0.1C18.8,12.5,18.9,12.6,19,12.6z M44.8,8.8
		C44.8,8.9,44.9,9,44.9,9c0,0.1-0.1,0.1-0.2,0.2c-0.3,0.2-0.9,0.3-1.7,0.4c-0.9,0.1-1.4,0.2-1.8,0.4c-1.4,0.6-2.7,1.4-4,2.5
		c-2.9,2.5-5.7,5.7-8.3,9.5c-2.8,3.9-4.8,7.5-6.1,10.8c-0.7,1.8-1.2,3.3-1.4,4.2c-0.1,1.4-0.3,2.1-0.5,2.3c-0.1,0.1-0.3,0.2-0.5,0.2
		c-0.1,0-0.2,0-0.3-0.1c-0.5-0.4-0.7-1-0.7-2c0.1-1.4,0.8-3.5,2.1-6.3c2-4.3,4.4-8.3,7.2-12c3.5-4.5,6.6-7.6,9.5-9.4
		c2.1-1.3,3.8-1.9,5-1.9C43.9,7.8,44.4,8.2,44.8,8.8z M30,53.4c-4.6-4.8-7.9-9-10-12.5c-0.1-0.1-0.1-0.1-0.1-0.2
		c0-0.1,0.1-0.2,0.2-0.3c0.1-0.1,0.2-0.1,0.3-0.1c0.1,0,0.1,0,0.2,0.1c2,2.9,5.5,7,10.6,12.2c4.9,5.1,8.4,9.2,10.5,12.1
		c0.1,0.1,0.1,0.1,0.1,0.2c0,0.1-0.1,0.3-0.2,0.4c-0.1,0.1-0.3,0.1-0.4,0.1c-0.1,0-0.2,0-0.3-0.1C39.4,63.4,35.8,59.5,30,53.4z
		 M22.6,9c-0.1-0.1-0.2-0.2-0.2-0.3c0-0.1,0.1-0.2,0.2-0.3c0.1-0.1,0.2-0.2,0.3-0.2c0.1,0,0.2,0.1,0.3,0.2c1.2,1.2,2.4,2.8,3.4,4.9
		l0,0.2c0,0.1,0,0.2-0.1,0.3c-0.1,0.1-0.1,0.1-0.2,0.1c-0.1,0-0.1,0-0.2-0.1C23.7,10.7,22.5,9.1,22.6,9L22.6,9z M25.4,14
		c-0.5-0.7-1-1.3-1.4-1.7C24,12.2,24,12.1,24,12c0-0.2,0.1-0.4,0.2-0.5c0.1-0.1,0.2-0.2,0.3-0.2c0.1,0,0.3,0.1,0.4,0.2
		c3.4,4.3,5.2,6.7,5.4,7l0,0.2c0,0.1,0,0.2-0.1,0.3c-0.1,0.1-0.2,0.1-0.3,0.1c-0.1,0-0.1,0-0.2-0.1c-0.1-0.1-1-1.2-2.8-3.3
		C26.6,15.4,26.1,14.9,25.4,14z M27,5.6c0.3,0.4,0.7,0.9,1.3,1.5c0.1,0.1,0.1,0.2,0.1,0.3c0,0.1,0,0.1-0.1,0.2
		c-0.1,0.1-0.1,0.1-0.2,0.1c-0.1,0-0.1,0-0.2-0.1c-0.6-0.5-1.1-1-1.5-1.4C26.7,5.8,27,5.6,27,5.6c0.1,0,1.2,1.4,3.4,4.2
		c0.4,0.5,1.6,1.8,3.7,3.9c0.1,0.1,0.2,0.2,0.2,0.3c0,0.1-0.1,0.2-0.2,0.3c-0.1,0.1-0.2,0.2-0.3,0.2c-0.1,0-0.2,0-0.3-0.1
		c0.1,0-2.3-2.7-7.1-8.2c-0.1-0.1-0.1-0.2-0.1-0.3c0-0.1,0-0.2,0.1-0.3c0.1-0.1,0.2-0.2,0.3-0.2C26.9,5.3,27,5.4,27,5.6z M34.7,50.6
		c-3.4-4-5.7-6.8-6.7-8.3c-0.1-0.1-0.1-0.1-0.1-0.2c0-0.1,0.1-0.2,0.2-0.3c0.1-0.1,0.3-0.2,0.4-0.2c0.1,0,0.1,0.1,0.2,0.2
		c8.5,11.4,12.9,17.1,13,17.1l0,0.1c0,0.2-0.1,0.3-0.3,0.4c-0.1,0.1-0.2,0.1-0.3,0.1c-0.1,0-0.2-0.1-0.3-0.3
		C39.6,56.8,37.5,53.9,34.7,50.6z M36.4,8.7c-1.3-1.4-2.4-2.4-3.3-3C33,5.5,33,5.4,33,5.3c0-0.1,0-0.3,0.1-0.4
		c0.1-0.2,0.3-0.3,0.4-0.3c0.1,0,0.2,0,0.3,0.1c1.1,0.8,2.2,1.9,3.4,3.2c1.7,1.8,2.6,2.8,2.9,3.2c0.1,0.1,0.1,0.1,0.1,0.2
		c0,0.1-0.1,0.2-0.2,0.3c-0.1,0.1-0.2,0.2-0.3,0.2c-0.1,0-0.1,0-0.2-0.1C39,11.4,38,10.4,36.4,8.7z M39.7,2.1
		c0.1,0.1,0.1,0.1,0.2,0.1c0.1,0.1,0.2,0.2,0.2,0.3c0,0.1,0,0.1-0.1,0.2c-0.1,0.1-0.2,0.2-0.4,0.2l-0.1,0c0-0.1-0.1-0.1-0.2-0.1
		c0.2-0.2,0.4-0.4,0.5-0.6l0,0.1c-0.1-0.1-0.2-0.2-0.6-0.3c0.2,0,0.6,0.4,1.1,1.1C40.5,3.3,41,3.9,42,5.1c1.5,2,2.4,3.1,2.6,3.5
		c0.1,0.2,0.2,0.4,0.2,0.5c0,0.3-0.2,0.4-0.5,0.6c-0.2,0.1-0.4,0.2-0.6,0.2c-0.3,0-0.4-0.2-0.6-0.4c-0.4-0.5-1.2-1.6-2.4-3
		C39.7,5,39,3.9,38.7,3c-0.1-0.2-0.1-0.4-0.1-0.5c0-0.1,0.1-0.3,0.2-0.4c0.1-0.2,0.3-0.3,0.5-0.3c0.1,0,0.2,0,0.3,0.1
		C39.6,2.1,39.6,2.1,39.7,2.1z M67.5,16.3c6-6.4,12.6-10.5,19.8-12.2C87.5,4.1,87.6,4,87.6,4c0.3,0,0.4,0.2,0.5,0.5l0,0.2
		c0,0.3-0.2,0.5-0.5,0.7c-15,5.2-25,15.5-30,30.9c-1.5,4.6-2.4,9-2.6,13.3c-0.1,2.2,0,4.4,0.2,6.5c1,7.7,4.5,13.1,10.4,16.1
		c2.1,1.1,4.2,1.7,6.2,1.8c4.1,0.2,8.2-1.5,12.4-5c5-4.1,7.6-8.7,7.8-13.7c0.1-1.4,0-2.8-0.4-4.3c-0.7-3.3-2.3-6-4.9-8.3
		c-2.5-2.1-5.3-3.2-8.4-3.4l-0.6,0c-8.7,0.1-13.2,1.5-13.5,4.3c0,0.8-0.4,1.1-1.1,1.1c-0.8,0-1.1-0.5-1.1-1.2
		c0.2-2.8,3.2-4.7,8.9-5.7c2.6-0.5,4.9-0.6,7-0.5c3.8,0.2,7,1.3,9.7,3.3c4.5,3.6,6.6,8,6.3,13.2c-0.1,1.1-0.2,2.3-0.5,3.5
		c-1.5,6.5-5.2,11.7-11,15.5c-3.7,2.5-7.3,3.6-10.9,3.4c-2.5-0.1-4.9-0.9-7.3-2.3c-6.1-3.6-9.7-9.2-11-16.8
		c-0.4-2.6-0.6-5.3-0.5-8.1c0.2-4,1-8.2,2.5-12.5C57.9,29,61.9,22.3,67.5,16.3z M57.6,58.4c-1.9-2.2-2.9-3.7-3.1-4.5l0-0.4
		c0-0.2,0-0.3,0.1-0.3c0.1,0,0.3,0.1,0.5,0.3c0.5,0.5,1.2,1.4,2,2.5c1,1.3,1.7,2.2,2.1,2.6c1.7,1.9,3.4,3.7,5.2,5.3
		c0.7,0.7,1.6,1.6,2.9,2.7c1.4,1.3,2.4,2.2,2.9,2.7c2.1,1.9,3.4,3.4,3.8,4.4C74,74,74,74,74,74.1c0,0.1-0.1,0.3-0.2,0.4
		c-0.1,0.1-0.2,0.1-0.3,0.1c-0.1,0-0.2,0-0.3-0.1c-1-1.4-4.5-4.9-10.4-10.4C60.9,62.2,59.2,60.3,57.6,58.4z M56,38.7
		c0.1,0,0.3,0,0.5,0.1c0.1,0,0.1,0,0.1,0.1c0,0.1,0,0.1-0.1,0.2c0,0.1,0,0.1-0.1,0.1l-0.1,0c0.8,0.3,2.4,1.7,4.8,4.3
		c3.8,3.9,6.7,7,8.8,9.3c1.5,1.7,4,4.9,7.5,9.5c3.2,4,5.7,7.1,7.7,9.3c0.1,0.1,0.2,0.2,0.2,0.3c0,0.1-0.1,0.2-0.2,0.3
		c-0.1,0.1-0.2,0.1-0.3,0.1c-0.1,0-0.2,0-0.3-0.1c-2.2-2.3-5.2-5.9-8.9-10.7c-3.8-4.9-6.8-8.5-8.8-10.7c-4.2-4.6-7.2-7.7-8.9-9.2
		c-1.5-1.4-2.2-2.3-2.2-2.6l0-0.1C55.8,38.7,55.9,38.6,56,38.7z M60.1,52.4c-2.5-3-3.9-4.9-4.2-5.7l0-0.1c0-0.1,0-0.1,0.1-0.2
		c0.1-0.1,0.2-0.1,0.3-0.1c0.1,0,0.1,0,0.1,0.1c0.8,0.8,1.8,1.9,2.9,3.4c1.5,1.9,2.5,3.1,2.8,3.5c4,4.6,6,6.9,6,6.9
		c7.5,7.7,11.4,12.1,11.7,13.1c0.1,0.1,0.1,0.1,0.1,0.2c0,0.2-0.1,0.3-0.4,0.4l-0.2,0c-0.2,0-0.4-0.1-0.5-0.3
		c-0.8-2.3-2.6-4.8-5.6-7.4c-4.1-3.6-6.4-5.8-7-6.5l0.1,0.2C66.3,59.9,64.2,57.4,60.1,52.4z M59.5,32.7c0.1,0,0.1,0,0.1,0.1
		c0,0.1,0,0.1-0.1,0.2c-0.1,0.1-0.2,0.1-0.3,0.1l-0.1,0c-0.1-0.1-0.2-0.2-0.4-0.3c0.1-0.1,0.1-0.1,0.2-0.2c0.1-0.1,0.1-0.1,0.2-0.2
		l0-0.1c0.1,0,0.1,0,0.1,0.1c0.2,0.2,0.4,0.4,0.7,0.7c0.4,0.3,0.9,0.9,1.5,1.5c0.6,0.7,1.5,1.6,2.7,2.7c1.4,1.2,2.3,2.1,2.8,2.6
		c0.1,0.1,0.2,0.2,0.2,0.3c0,0.1-0.1,0.2-0.2,0.3c-0.1,0.1-0.2,0.2-0.3,0.2c-0.1,0-0.1,0-0.2-0.1c-1.8-1-3.7-2.9-5.9-5.7
		c-1.2-1.6-1.9-2.4-2-2.4c0.1-0.2,0.2-0.3,0.3-0.3l0.1,0C59,32.2,59.2,32.4,59.5,32.7z M61.5,26.9l0,0.2c0,0.8,1,2.5,3.1,5
		c1.2,1.5,2.4,2.9,3.6,4.1c1.2,1.3,2.1,2.1,2.7,2.3c0.2,0,0.4,0,0.5-0.2c0.1-0.1,0.1-0.1,0.1-0.2c0-0.1-0.1-0.2-0.2-0.3
		c-0.5-0.7-1.3-1.6-2.5-2.7c-1.2-1.2-2-2.1-2.6-2.7c-1-1.2-1.9-2.3-2.7-3.4c-0.8-1.3-1.3-2-1.5-2l0-0.2c0-0.1-0.1-0.2-0.2-0.2
		l-0.1,0C61.7,26.7,61.6,26.7,61.5,26.9z M67.5,27.8c-1-1.2-2.1-2.8-3.3-4.7c-0.1-0.1-0.1-0.1-0.1-0.2c0-0.1,0.1-0.3,0.2-0.4
		c0.1-0.1,0.3-0.2,0.4-0.2c0.1,0,0.2,0.1,0.3,0.2c1.2,1.8,2.4,3.5,3.5,5c2.1,2.7,3.1,4.1,3.2,4.1l0-0.1c0.1,0.1,0.1,0.1,0.1,0.2
		c0,0.1-0.1,0.2-0.2,0.3c-0.1,0.1-0.2,0.2-0.3,0.2c-0.1,0-0.1,0-0.2-0.1C70.4,31.5,69.2,30.1,67.5,27.8z M72.1,47.8
		c-2.7-2.5-4.6-4.6-5.9-6.3c-0.1-0.1-0.1-0.2-0.1-0.3c0-0.1,0.1-0.3,0.2-0.4c0.1-0.1,0.2-0.2,0.3-0.2c0.1,0,0.2,0.1,0.3,0.2
		c1.2,1.2,3.3,3.4,6.4,6.6c2.7,2.7,4.8,5,6.3,6.7c5.1,5.7,7.9,9.8,8.4,12.1l0,0.2c0,0.2-0.1,0.4-0.4,0.5l-0.2,0
		c-0.2,0-0.3-0.1-0.4-0.4c-0.5-2-3.5-6.2-9-12.5C76.9,52.7,74.9,50.7,72.1,47.8z M72.2,22.8c-1.7-1.6-3-3.1-4.1-4.4
		c-0.1-0.1-0.1-0.2-0.1-0.3c0-0.1,0-0.2,0.1-0.3c0.1-0.1,0.3-0.2,0.4-0.2c0.1,0,0.2,0,0.3,0.1c0.9,1.2,2.3,2.6,4.1,4.4
		c2.1,2,3.3,3.3,3.7,3.9l0,0.1c0,0.1,0,0.3-0.1,0.4c-0.1,0.1-0.1,0.1-0.2,0.1c-0.1,0-0.1,0-0.2-0.1C75.9,26.5,74.6,25.2,72.2,22.8z
		 M92.6,13.4c0.1,0,0.2,0.1,0.2,0.3c0,0.2-0.1,0.3-0.2,0.4C87,15.5,82.5,18.7,79,23.6c-3.3,4.6-5.8,9.3-7.5,14.3
		c-0.2,0.4-0.5,0.7-0.9,0.6l-0.3,0c-0.4-0.2-0.7-0.5-0.6-0.9l0-0.3c2.2-6.6,5.3-12.2,9.3-16.9c4.4-5.1,8.3-7.6,11.9-7.4
		C91.5,13.1,92,13.2,92.6,13.4z M77,19.4c-1.7-1.6-3.2-2.8-4.5-3.6c-0.2-0.1-0.3-0.3-0.3-0.5c0-0.1,0-0.2,0.1-0.3
		c0.1-0.2,0.3-0.3,0.4-0.3c0.1,0,0.2,0,0.3,0.1c3.7,2.5,6.4,4.9,8.1,7.4c0.1,0.1,0.1,0.1,0.1,0.2c0,0.1,0,0.1-0.1,0.2
		c-0.1,0.1-0.3,0.1-0.4,0.1l-0.1,0C80.5,22.6,79.3,21.5,77,19.4z M81.6,49.5c-4.4-3.9-7.3-7.1-8.8-9.5c-0.1-0.1-0.1-0.1-0.1-0.2
		c0-0.1,0.1-0.2,0.2-0.3c0.1-0.1,0.2-0.1,0.3-0.1c0.1,0,0.3,0.1,0.4,0.2c1.1,1.7,4.5,5.2,10.2,10.5c4.7,4.3,7.2,7.7,7.5,10.3l0,0.1
		c0,0.1-0.1,0.3-0.3,0.4l-0.1,0c-0.1,0-0.3-0.1-0.4-0.2c-2-3.4-3.3-5.5-3.9-6.1C85.5,53.2,83.8,51.5,81.6,49.5z M80.2,15.2
		c-1.6-1.3-2.9-2.2-3.9-2.9C76.1,12.1,76,12,76,11.8c0-0.1,0-0.2,0.1-0.3c0.1-0.2,0.3-0.3,0.4-0.3c0.1,0,0.2,0,0.3,0.1
		c1.1,0.6,2.4,1.6,3.9,2.9c2.2,1.8,3.4,2.8,3.6,2.9c0.1,0.1,0.1,0.1,0.1,0.2c0,0.1,0,0.2-0.1,0.3c-0.1,0.1-0.2,0.2-0.3,0.2l-0.2,0
		C83.2,17.7,82,16.7,80.2,15.2z M82.9,8c0.1,0.1,0.1,0.1,0.1,0.2c0,0.1,0,0.2-0.1,0.3c-0.1,0.1-0.2,0.2-0.3,0.2
		c-0.1,0-0.1,0-0.2-0.1L82,8.3c0.2-0.2,0.4-0.4,0.5-0.6L82.9,8c0,0.1,0.1,0.2,0.3,0.4c0.2,0.1,0.3,0.2,0.5,0.3
		c0.7,0.6,1.1,0.9,1.2,1.1c3.2,3.4,4.9,5.1,5,5.3c0.1,0.1,0.1,0.1,0.1,0.2c0,0.1-0.1,0.2-0.2,0.3c-0.1,0.1-0.2,0.2-0.3,0.2
		c-0.1,0-0.1,0-0.2-0.1c-0.8-0.6-1.8-1.5-2.9-2.8c-1.3-1.5-2.2-2.5-2.8-3c-1.3-1.1-2-1.8-1.9-2c0-0.3,0.1-0.5,0.3-0.5
		c0.1,0,0.3,0,0.4,0.1l-0.1-0.1L82.9,8z M80.8,39.6c0.4,0.6,0.6,1,0.7,1.3c0.1,0.1,0.1,0.1,0.1,0.2c0,0.1-0.1,0.1-0.2,0.2
		c-0.1,0.1-0.1,0.1-0.2,0.1c-0.1,0-0.1-0.1-0.2-0.2c-0.2-0.5-0.5-0.8-0.9-1.1l0.6-0.6c-0.1-0.1,1.9,2.2,6,6.8c2.5,3,4,5.1,4.4,6.3
		c0.1,0.1,0.1,0.2,0.1,0.3c0,0.1-0.1,0.2-0.2,0.3c-0.1,0.1-0.2,0.1-0.3,0.1c-0.1,0-0.1,0-0.2-0.1c-0.5-0.7-1.4-1.8-2.5-3.4
		c-1-1.4-1.9-2.5-2.6-3.3c-3.6-4.2-5.3-6.3-5.3-6.3C80,39.9,80,39.8,80,39.7c0-0.1,0-0.2,0.1-0.3c0.1-0.1,0.2-0.1,0.3-0.1
		C80.6,39.4,80.7,39.4,80.8,39.6z M87.2,4.7c0.1-0.1,0.1-0.2,0.2-0.2l0.1,0c0.1,0,0.2,0.1,0.2,0.2l0,0.1c0-0.1,0-0.2,0.1-0.2
		c0.1,0,0.3,0.5,0.5,1.4c0.2,0.5,0.5,1.2,1.1,2.1c0.5,0.9,1.2,2.1,2.2,3.8c0.1,0.1,0.2,0.3,0.2,0.5c0,0.2-0.1,0.3-0.4,0.5
		c-0.2,0.1-0.4,0.2-0.5,0.2c-0.2,0-0.4-0.1-0.5-0.2c-1-1.2-1.9-2.7-2.7-4.7c-0.4-1.1-0.6-1.9-0.7-2.5l0-0.1
		C87,5.4,87.1,5.1,87.2,4.7z"/>
</g>
</svg>
