<?xml version="1.0" encoding="utf-8"?>
<!-- Generator: Adobe Illustrator 24.3.0, SVG Export Plug-In . SVG Version: 6.00 Build 0)  -->
<svg version="1.1" id="Layer_1" xmlns="http://www.w3.org/2000/svg" xmlns:xlink="http://www.w3.org/1999/xlink" x="0px" y="0px"
	 viewBox="0 0 75 52" style="enable-background:new 0 0 75 52;" xml:space="preserve">
<style type="text/css">
	.st0{fill:#FFFFFF;}
</style>
<path class="st0" d="M43.7,46.1c1.4,2.2,3.8,3.5,7.1,3.9c4,0.5,7,0.7,10.7,0.7c0.5,0,1.1,0,1.7,0.1c3.1,0.2,7.7,0.4,9.8-1.6
	c0.7-0.7,1.1-1.6,1.1-2.6c0.3-2.3,0.2-4.6,0.1-6.7c-0.1-1.2-0.1-2.5-0.1-3.7c0-0.7,0-1.4,0.1-2c0.1-2.3,0.2-4.6-0.8-7
	c-2.1-5.1-6.8-4.6-10.9-4.1l-0.7,0.1c-0.7,0-2.3,0.4-2.4,0.5c-0.2,0-0.6,0-1.2-0.2c0.4-3.5,1.5-6.2,3.6-8.5c0.6-0.7,1.6-1.4,2.6-2.2
	c2-1.5,4.3-3.2,4.8-5.5c0.3-1.4-0.2-2.7-1.4-3.8c-1.5-1.3-4-2.1-6-2.1c-0.7,0-1.3,0.1-1.9,0.3c-1.4,0.3-3.9,1.2-5.8,3
	c-7.8,8.3-11.7,18.5-11.7,31.3l0,2.5C42,41.5,42.5,44.1,43.7,46.1z"/>
<path class="st0" d="M2.2,46.1C3.6,48.3,6,49.6,9.2,50c4,0.5,7,0.7,10.7,0.7c0.5,0,1.1,0,1.7,0.1c3.1,0.2,7.7,0.4,9.8-1.6
	c0.7-0.7,1.1-1.6,1.1-2.6c0.3-2.3,0.2-4.6,0.1-6.7c-0.1-1.2-0.1-2.5-0.1-3.7c0-0.7,0-1.4,0.1-2c0.1-2.3,0.2-4.6-0.8-7
	c-2.1-5.1-6.8-4.6-10.9-4.1l-0.7,0.1c-0.7,0-2.3,0.4-2.4,0.5c-0.2,0-0.6,0-1.2-0.2c0.4-3.5,1.5-6.2,3.6-8.5c0.6-0.7,1.6-1.4,2.6-2.2
	c2-1.5,4.3-3.2,4.8-5.5c0.3-1.4-0.2-2.7-1.4-3.8c-1.5-1.3-4-2.1-6-2.1c-0.7,0-1.4,0.1-1.9,0.3c-1.4,0.3-3.9,1.2-5.8,3
	C4.6,12.9,0.8,23.1,0.8,35.8l0,2.5C0.5,41.5,1,44.1,2.2,46.1z"/>
</svg>
