<?xml version="1.0" encoding="utf-8"?>
<!-- Generator: Adobe Illustrator 24.3.0, SVG Export Plug-In . SVG Version: 6.00 Build 0)  -->
<svg version="1.1" id="Layer_1" xmlns="http://www.w3.org/2000/svg" xmlns:xlink="http://www.w3.org/1999/xlink" x="0px" y="0px"
	 viewBox="0 0 75 52" style="enable-background:new 0 0 75 52;" xml:space="preserve">
<style type="text/css">
	.st0{fill:#FFFFFF;}
</style>
<path class="st0" d="M31.3,5.9c-1.4-2.2-3.8-3.5-7.1-3.9c-4-0.5-7-0.7-10.7-0.7c-0.5,0-1.1,0-1.7-0.1C8.8,1.2,4.1,0.9,2,2.9
	C1.3,3.6,0.9,4.5,0.9,5.5C0.6,7.8,0.7,10,0.9,12.2C0.9,13.4,1,14.7,1,15.9c0,0.7,0,1.4-0.1,2c-0.1,2.3-0.2,4.6,0.8,7
	c2.1,5.1,6.8,4.6,10.9,4.1l0.7-0.1c0.7,0,2.3-0.4,2.4-0.5c0.2,0,0.6,0,1.2,0.2c-0.4,3.5-1.5,6.2-3.6,8.5c-0.6,0.7-1.6,1.4-2.6,2.2
	c-2,1.5-4.3,3.2-4.8,5.5c-0.3,1.4,0.2,2.7,1.4,3.8c1.5,1.3,4,2.1,6,2.1c0.7,0,1.4-0.1,1.9-0.3c1.4-0.3,3.9-1.2,5.8-3
	c7.8-8.3,11.7-18.5,11.7-31.3l0-2.5C33,10.5,32.5,7.9,31.3,5.9z"/>
<path class="st0" d="M72.8,5.9C71.4,3.7,69,2.4,65.8,2c-4-0.5-7-0.7-10.7-0.7c-0.5,0-1.1,0-1.7-0.1c-3.1-0.2-7.7-0.4-9.8,1.6
	c-0.7,0.7-1.1,1.6-1.1,2.6c-0.3,2.3-0.2,4.6-0.1,6.7c0.1,1.2,0.1,2.5,0.1,3.7c0,0.7,0,1.4-0.1,2c-0.1,2.3-0.2,4.6,0.8,7
	c2.1,5.1,6.8,4.6,10.9,4.1l0.7-0.1c0.7,0,2.3-0.4,2.4-0.5c0.2,0,0.6,0,1.2,0.2c-0.4,3.5-1.5,6.2-3.6,8.5c-0.6,0.7-1.6,1.4-2.6,2.2
	c-2,1.5-4.3,3.2-4.8,5.5c-0.3,1.4,0.2,2.7,1.4,3.8c1.5,1.3,4,2.1,6,2.1c0.7,0,1.3-0.1,1.9-0.3c1.4-0.3,3.9-1.2,5.8-3
	c7.8-8.3,11.7-18.5,11.7-31.3l0-2.5C74.5,10.5,74,7.9,72.8,5.9z"/>
</svg>
